<svg xmlns="http://www.w3.org/2000/svg" xmlns:xlink="http://www.w3.org/1999/xlink" contentStyleType="text/css" height="437px" preserveAspectRatio="none" style="width:1125px;height:437px;background:#FFFFFF;" version="1.1" viewBox="0 0 1125 437" width="1125px" zoomAndPan="magnify"><defs/><g><!--class CentroSalud--><g id="elem_CentroSalud"><rect codeLine="1" fill="#F1F1F1" height="48" id="CentroSalud" rx="2.5" ry="2.5" style="stroke:#181818;stroke-width:0.5;" width="118.1875" x="259.88" y="7"/><ellipse cx="274.88" cy="23" fill="#ADD1B2" rx="11" ry="11" style="stroke:#181818;stroke-width:1.0;"/><path d="M277.8488,28.6406 Q277.2706,28.9375 276.63,29.0781 Q275.9894,29.2344 275.2863,29.2344 Q272.7863,29.2344 271.4581,27.5938 Q270.1456,25.9375 270.1456,22.8125 Q270.1456,19.6875 271.4581,18.0313 Q272.7863,16.375 275.2863,16.375 Q275.9894,16.375 276.63,16.5313 Q277.2863,16.6875 277.8488,16.9844 L277.8488,19.7031 Q277.2238,19.125 276.63,18.8594 Q276.0363,18.5781 275.4113,18.5781 Q274.0675,18.5781 273.38,19.6563 Q272.6925,20.7188 272.6925,22.8125 Q272.6925,24.9063 273.38,25.9844 Q274.0675,27.0469 275.4113,27.0469 Q276.0363,27.0469 276.63,26.7813 Q277.2238,26.5 277.8488,25.9219 L277.8488,28.6406 Z " fill="#000000"/><text fill="#000000" font-family="sans-serif" font-size="14" lengthAdjust="spacing" textLength="86.1875" x="288.88" y="27.8467">CentroSalud</text><line style="stroke:#181818;stroke-width:0.5;" x1="260.88" x2="377.0675" y1="39" y2="39"/><line style="stroke:#181818;stroke-width:0.5;" x1="260.88" x2="377.0675" y1="47" y2="47"/></g><!--class Paciente--><g id="elem_Paciente"><rect codeLine="5" fill="#F1F1F1" height="48" id="Paciente" rx="2.5" ry="2.5" style="stroke:#181818;stroke-width:0.5;" width="92.1973" x="783.87" y="132"/><ellipse cx="798.87" cy="148" fill="#ADD1B2" rx="11" ry="11" style="stroke:#181818;stroke-width:1.0;"/><path d="M801.8388,153.6406 Q801.2606,153.9375 800.62,154.0781 Q799.9794,154.2344 799.2763,154.2344 Q796.7763,154.2344 795.4481,152.5938 Q794.1356,150.9375 794.1356,147.8125 Q794.1356,144.6875 795.4481,143.0313 Q796.7763,141.375 799.2763,141.375 Q799.9794,141.375 800.62,141.5313 Q801.2763,141.6875 801.8388,141.9844 L801.8388,144.7031 Q801.2138,144.125 800.62,143.8594 Q800.0263,143.5781 799.4013,143.5781 Q798.0575,143.5781 797.37,144.6563 Q796.6825,145.7188 796.6825,147.8125 Q796.6825,149.9063 797.37,150.9844 Q798.0575,152.0469 799.4013,152.0469 Q800.0263,152.0469 800.62,151.7813 Q801.2138,151.5 801.8388,150.9219 L801.8388,153.6406 Z " fill="#000000"/><text fill="#000000" font-family="sans-serif" font-size="14" lengthAdjust="spacing" textLength="60.1973" x="812.87" y="152.8467">Paciente</text><line style="stroke:#181818;stroke-width:0.5;" x1="784.87" x2="875.0673" y1="164" y2="164"/><line style="stroke:#181818;stroke-width:0.5;" x1="784.87" x2="875.0673" y1="172" y2="172"/></g><!--class ProfMedico--><g id="elem_ProfMedico"><rect codeLine="9" fill="#F1F1F1" height="48" id="ProfMedico" rx="2.5" ry="2.5" style="stroke:#181818;stroke-width:0.5;" width="109.4238" x="264.26" y="132"/><ellipse cx="279.26" cy="148" fill="#ADD1B2" rx="11" ry="11" style="stroke:#181818;stroke-width:1.0;"/><path d="M282.2288,153.6406 Q281.6506,153.9375 281.01,154.0781 Q280.3694,154.2344 279.6663,154.2344 Q277.1663,154.2344 275.8381,152.5938 Q274.5256,150.9375 274.5256,147.8125 Q274.5256,144.6875 275.8381,143.0313 Q277.1663,141.375 279.6663,141.375 Q280.3694,141.375 281.01,141.5313 Q281.6663,141.6875 282.2288,141.9844 L282.2288,144.7031 Q281.6038,144.125 281.01,143.8594 Q280.4163,143.5781 279.7913,143.5781 Q278.4475,143.5781 277.76,144.6563 Q277.0725,145.7188 277.0725,147.8125 Q277.0725,149.9063 277.76,150.9844 Q278.4475,152.0469 279.7913,152.0469 Q280.4163,152.0469 281.01,151.7813 Q281.6038,151.5 282.2288,150.9219 L282.2288,153.6406 Z " fill="#000000"/><text fill="#000000" font-family="sans-serif" font-size="14" lengthAdjust="spacing" textLength="77.4238" x="293.26" y="152.8467">ProfMedico</text><line style="stroke:#181818;stroke-width:0.5;" x1="265.26" x2="372.6838" y1="164" y2="164"/><line style="stroke:#181818;stroke-width:0.5;" x1="265.26" x2="372.6838" y1="172" y2="172"/></g><!--class Especialidad--><g id="elem_Especialidad"><rect codeLine="13" fill="#F1F1F1" height="48" id="Especialidad" rx="2.5" ry="2.5" style="stroke:#181818;stroke-width:0.5;" width="119.9375" x="7" y="257"/><ellipse cx="22" cy="273" fill="#ADD1B2" rx="11" ry="11" style="stroke:#181818;stroke-width:1.0;"/><path d="M24.9688,278.6406 Q24.3906,278.9375 23.75,279.0781 Q23.1094,279.2344 22.4063,279.2344 Q19.9063,279.2344 18.5781,277.5938 Q17.2656,275.9375 17.2656,272.8125 Q17.2656,269.6875 18.5781,268.0313 Q19.9063,266.375 22.4063,266.375 Q23.1094,266.375 23.75,266.5313 Q24.4063,266.6875 24.9688,266.9844 L24.9688,269.7031 Q24.3438,269.125 23.75,268.8594 Q23.1563,268.5781 22.5313,268.5781 Q21.1875,268.5781 20.5,269.6563 Q19.8125,270.7188 19.8125,272.8125 Q19.8125,274.9063 20.5,275.9844 Q21.1875,277.0469 22.5313,277.0469 Q23.1563,277.0469 23.75,276.7813 Q24.3438,276.5 24.9688,275.9219 L24.9688,278.6406 Z " fill="#000000"/><text fill="#000000" font-family="sans-serif" font-size="14" lengthAdjust="spacing" textLength="87.9375" x="36" y="277.8467">Especialidad</text><line style="stroke:#181818;stroke-width:0.5;" x1="8" x2="125.9375" y1="289" y2="289"/><line style="stroke:#181818;stroke-width:0.5;" x1="8" x2="125.9375" y1="297" y2="297"/></g><!--class Cita--><g id="elem_Cita"><rect codeLine="17" fill="#F1F1F1" height="48" id="Cita" rx="2.5" ry="2.5" style="stroke:#181818;stroke-width:0.5;" width="59.7334" x="642.1" y="257"/><ellipse cx="657.1" cy="273" fill="#ADD1B2" rx="11" ry="11" style="stroke:#181818;stroke-width:1.0;"/><path d="M660.0688,278.6406 Q659.4906,278.9375 658.85,279.0781 Q658.2094,279.2344 657.5063,279.2344 Q655.0063,279.2344 653.6781,277.5938 Q652.3656,275.9375 652.3656,272.8125 Q652.3656,269.6875 653.6781,268.0313 Q655.0063,266.375 657.5063,266.375 Q658.2094,266.375 658.85,266.5313 Q659.5063,266.6875 660.0688,266.9844 L660.0688,269.7031 Q659.4438,269.125 658.85,268.8594 Q658.2563,268.5781 657.6313,268.5781 Q656.2875,268.5781 655.6,269.6563 Q654.9125,270.7188 654.9125,272.8125 Q654.9125,274.9063 655.6,275.9844 Q656.2875,277.0469 657.6313,277.0469 Q658.2563,277.0469 658.85,276.7813 Q659.4438,276.5 660.0688,275.9219 L660.0688,278.6406 Z " fill="#000000"/><text fill="#000000" font-family="sans-serif" font-size="14" lengthAdjust="spacing" textLength="27.7334" x="671.1" y="277.8467">Cita</text><line style="stroke:#181818;stroke-width:0.5;" x1="643.1" x2="700.8334" y1="289" y2="289"/><line style="stroke:#181818;stroke-width:0.5;" x1="643.1" x2="700.8334" y1="297" y2="297"/></g><!--class Diagnostico--><g id="elem_Diagnostico"><rect codeLine="21" fill="#F1F1F1" height="48" id="Diagnostico" rx="2.5" ry="2.5" style="stroke:#181818;stroke-width:0.5;" width="114.5098" x="490.71" y="382"/><ellipse cx="505.71" cy="398" fill="#ADD1B2" rx="11" ry="11" style="stroke:#181818;stroke-width:1.0;"/><path d="M508.6788,403.6406 Q508.1006,403.9375 507.46,404.0781 Q506.8194,404.2344 506.1163,404.2344 Q503.6163,404.2344 502.2881,402.5938 Q500.9756,400.9375 500.9756,397.8125 Q500.9756,394.6875 502.2881,393.0313 Q503.6163,391.375 506.1163,391.375 Q506.8194,391.375 507.46,391.5313 Q508.1163,391.6875 508.6788,391.9844 L508.6788,394.7031 Q508.0538,394.125 507.46,393.8594 Q506.8663,393.5781 506.2413,393.5781 Q504.8975,393.5781 504.21,394.6563 Q503.5225,395.7188 503.5225,397.8125 Q503.5225,399.9063 504.21,400.9844 Q504.8975,402.0469 506.2413,402.0469 Q506.8663,402.0469 507.46,401.7813 Q508.0538,401.5 508.6788,400.9219 L508.6788,403.6406 Z " fill="#000000"/><text fill="#000000" font-family="sans-serif" font-size="14" lengthAdjust="spacing" textLength="82.5098" x="519.71" y="402.8467">Diagnostico</text><line style="stroke:#181818;stroke-width:0.5;" x1="491.71" x2="604.2198" y1="414" y2="414"/><line style="stroke:#181818;stroke-width:0.5;" x1="491.71" x2="604.2198" y1="422" y2="422"/></g><!--class Tratamiento--><g id="elem_Tratamiento"><rect codeLine="25" fill="#F1F1F1" height="48" id="Tratamiento" rx="2.5" ry="2.5" style="stroke:#181818;stroke-width:0.5;" width="118.0234" x="488.96" y="257"/><ellipse cx="503.96" cy="273" fill="#ADD1B2" rx="11" ry="11" style="stroke:#181818;stroke-width:1.0;"/><path d="M506.9288,278.6406 Q506.3506,278.9375 505.71,279.0781 Q505.0694,279.2344 504.3663,279.2344 Q501.8663,279.2344 500.5381,277.5938 Q499.2256,275.9375 499.2256,272.8125 Q499.2256,269.6875 500.5381,268.0313 Q501.8663,266.375 504.3663,266.375 Q505.0694,266.375 505.71,266.5313 Q506.3663,266.6875 506.9288,266.9844 L506.9288,269.7031 Q506.3038,269.125 505.71,268.8594 Q505.1163,268.5781 504.4913,268.5781 Q503.1475,268.5781 502.46,269.6563 Q501.7725,270.7188 501.7725,272.8125 Q501.7725,274.9063 502.46,275.9844 Q503.1475,277.0469 504.4913,277.0469 Q505.1163,277.0469 505.71,276.7813 Q506.3038,276.5 506.9288,275.9219 L506.9288,278.6406 Z " fill="#000000"/><text fill="#000000" font-family="sans-serif" font-size="14" lengthAdjust="spacing" textLength="86.0234" x="517.96" y="277.8467">Tratamiento</text><line style="stroke:#181818;stroke-width:0.5;" x1="489.96" x2="605.9834" y1="289" y2="289"/><line style="stroke:#181818;stroke-width:0.5;" x1="489.96" x2="605.9834" y1="297" y2="297"/></g><!--class HistClinico--><g id="elem_HistClinico"><rect codeLine="29" fill="#F1F1F1" height="48" id="HistClinico" rx="2.5" ry="2.5" style="stroke:#181818;stroke-width:0.5;" width="105.7803" x="348.08" y="257"/><ellipse cx="363.08" cy="273" fill="#ADD1B2" rx="11" ry="11" style="stroke:#181818;stroke-width:1.0;"/><path d="M366.0488,278.6406 Q365.4706,278.9375 364.83,279.0781 Q364.1894,279.2344 363.4863,279.2344 Q360.9863,279.2344 359.6581,277.5938 Q358.3456,275.9375 358.3456,272.8125 Q358.3456,269.6875 359.6581,268.0313 Q360.9863,266.375 363.4863,266.375 Q364.1894,266.375 364.83,266.5313 Q365.4863,266.6875 366.0488,266.9844 L366.0488,269.7031 Q365.4238,269.125 364.83,268.8594 Q364.2363,268.5781 363.6113,268.5781 Q362.2675,268.5781 361.58,269.6563 Q360.8925,270.7188 360.8925,272.8125 Q360.8925,274.9063 361.58,275.9844 Q362.2675,277.0469 363.6113,277.0469 Q364.2363,277.0469 364.83,276.7813 Q365.4238,276.5 366.0488,275.9219 L366.0488,278.6406 Z " fill="#000000"/><text fill="#000000" font-family="sans-serif" font-size="14" lengthAdjust="spacing" textLength="73.7803" x="377.08" y="277.8467">HistClinico</text><line style="stroke:#181818;stroke-width:0.5;" x1="349.08" x2="452.8603" y1="289" y2="289"/><line style="stroke:#181818;stroke-width:0.5;" x1="349.08" x2="452.8603" y1="297" y2="297"/></g><!--class Urgencias--><g id="elem_Urgencias"><rect codeLine="33" fill="#F1F1F1" height="48" id="Urgencias" rx="2.5" ry="2.5" style="stroke:#181818;stroke-width:0.5;" width="101.8359" x="963.05" y="7"/><ellipse cx="978.05" cy="23" fill="#ADD1B2" rx="11" ry="11" style="stroke:#181818;stroke-width:1.0;"/><path d="M981.0188,28.6406 Q980.4406,28.9375 979.8,29.0781 Q979.1594,29.2344 978.4563,29.2344 Q975.9563,29.2344 974.6281,27.5938 Q973.3156,25.9375 973.3156,22.8125 Q973.3156,19.6875 974.6281,18.0313 Q975.9563,16.375 978.4563,16.375 Q979.1594,16.375 979.8,16.5313 Q980.4563,16.6875 981.0188,16.9844 L981.0188,19.7031 Q980.3938,19.125 979.8,18.8594 Q979.2063,18.5781 978.5813,18.5781 Q977.2375,18.5781 976.55,19.6563 Q975.8625,20.7188 975.8625,22.8125 Q975.8625,24.9063 976.55,25.9844 Q977.2375,27.0469 978.5813,27.0469 Q979.2063,27.0469 979.8,26.7813 Q980.3938,26.5 981.0188,25.9219 L981.0188,28.6406 Z " fill="#000000"/><text fill="#000000" font-family="sans-serif" font-size="14" lengthAdjust="spacing" textLength="69.8359" x="992.05" y="27.8467">Urgencias</text><line style="stroke:#181818;stroke-width:0.5;" x1="964.05" x2="1063.8859" y1="39" y2="39"/><line style="stroke:#181818;stroke-width:0.5;" x1="964.05" x2="1063.8859" y1="47" y2="47"/></g><!--class Sala--><g id="elem_Sala"><rect codeLine="37" fill="#F1F1F1" height="48" id="Sala" rx="2.5" ry="2.5" style="stroke:#181818;stroke-width:0.5;" width="61.9346" x="965" y="257"/><ellipse cx="980" cy="273" fill="#ADD1B2" rx="11" ry="11" style="stroke:#181818;stroke-width:1.0;"/><path d="M982.9688,278.6406 Q982.3906,278.9375 981.75,279.0781 Q981.1094,279.2344 980.4063,279.2344 Q977.9063,279.2344 976.5781,277.5938 Q975.2656,275.9375 975.2656,272.8125 Q975.2656,269.6875 976.5781,268.0313 Q977.9063,266.375 980.4063,266.375 Q981.1094,266.375 981.75,266.5313 Q982.4063,266.6875 982.9688,266.9844 L982.9688,269.7031 Q982.3438,269.125 981.75,268.8594 Q981.1563,268.5781 980.5313,268.5781 Q979.1875,268.5781 978.5,269.6563 Q977.8125,270.7188 977.8125,272.8125 Q977.8125,274.9063 978.5,275.9844 Q979.1875,277.0469 980.5313,277.0469 Q981.1563,277.0469 981.75,276.7813 Q982.3438,276.5 982.9688,275.9219 L982.9688,278.6406 Z " fill="#000000"/><text fill="#000000" font-family="sans-serif" font-size="14" lengthAdjust="spacing" textLength="29.9346" x="994" y="277.8467">Sala</text><line style="stroke:#181818;stroke-width:0.5;" x1="966" x2="1025.9346" y1="289" y2="289"/><line style="stroke:#181818;stroke-width:0.5;" x1="966" x2="1025.9346" y1="297" y2="297"/></g><!--class Administrativo--><g id="elem_Administrativo"><rect codeLine="41" fill="#F1F1F1" height="48" id="Administrativo" rx="2.5" ry="2.5" style="stroke:#181818;stroke-width:0.5;" width="134.1016" x="554.92" y="132"/><ellipse cx="569.92" cy="148" fill="#ADD1B2" rx="11" ry="11" style="stroke:#181818;stroke-width:1.0;"/><path d="M572.8888,153.6406 Q572.3106,153.9375 571.67,154.0781 Q571.0294,154.2344 570.3263,154.2344 Q567.8263,154.2344 566.4981,152.5938 Q565.1856,150.9375 565.1856,147.8125 Q565.1856,144.6875 566.4981,143.0313 Q567.8263,141.375 570.3263,141.375 Q571.0294,141.375 571.67,141.5313 Q572.3263,141.6875 572.8888,141.9844 L572.8888,144.7031 Q572.2638,144.125 571.67,143.8594 Q571.0763,143.5781 570.4513,143.5781 Q569.1075,143.5781 568.42,144.6563 Q567.7325,145.7188 567.7325,147.8125 Q567.7325,149.9063 568.42,150.9844 Q569.1075,152.0469 570.4513,152.0469 Q571.0763,152.0469 571.67,151.7813 Q572.2638,151.5 572.8888,150.9219 L572.8888,153.6406 Z " fill="#000000"/><text fill="#000000" font-family="sans-serif" font-size="14" lengthAdjust="spacing" textLength="102.1016" x="583.92" y="152.8467">Administrativo</text><line style="stroke:#181818;stroke-width:0.5;" x1="555.92" x2="688.0216" y1="164" y2="164"/><line style="stroke:#181818;stroke-width:0.5;" x1="555.92" x2="688.0216" y1="172" y2="172"/></g><!--link CentroSalud to ProfMedico--><g id="link_CentroSalud_ProfMedico"><path codeLine="45" d="M318.97,55.42 C318.97,77.31 318.97,103.8 318.97,125.66 " fill="none" id="CentroSalud-to-ProfMedico" style="stroke:#181818;stroke-width:1.0;"/><polygon fill="#181818" points="318.97,131.66,322.97,122.66,318.97,126.66,314.97,122.66,318.97,131.66" style="stroke:#181818;stroke-width:1.0;"/><text fill="#000000" font-family="sans-serif" font-size="13" lengthAdjust="spacing" textLength="80.3931" x="319.97" y="98.0669">formado por</text><text fill="#000000" font-family="sans-serif" font-size="13" lengthAdjust="spacing" textLength="23.0356" x="293.1708" y="120.9821">1..*</text></g><!--link CentroSalud to Sala--><g id="link_CentroSalud_Sala"><path codeLine="46" d="M378.52,33.99 C466.44,38.03 635.63,50.02 774.97,85 C830.12,98.84 844.6,103.78 893.97,132 C942.9,159.97 968.52,159.71 993.97,210 C1001.21,224.32 1002.1071,236.5088 1000.7071,250.7488 " fill="none" id="CentroSalud-to-Sala" style="stroke:#181818;stroke-width:1.0;"/><polygon fill="#181818" points="1000.12,256.72,1004.9814,248.1546,1000.6092,251.744,997.0198,247.3718,1000.12,256.72" style="stroke:#181818;stroke-width:1.0;"/><text fill="#000000" font-family="sans-serif" font-size="13" lengthAdjust="spacing" textLength="32.9443" x="973.97" y="160.5669">tiene</text><text fill="#000000" font-family="sans-serif" font-size="13" lengthAdjust="spacing" textLength="23.0356" x="975.3334" y="246.0567">1..*</text></g><!--link CentroSalud to Especialidad--><g id="link_CentroSalud_Especialidad"><path codeLine="47" d="M270.99,55.41 C217.08,84.23 130.98,138.31 83.97,210 C74.85,223.91 71.4322,236.3152 69.4622,250.7352 " fill="none" id="CentroSalud-to-Especialidad" style="stroke:#181818;stroke-width:1.0;"/><polygon fill="#181818" points="68.65,256.68,73.8314,248.3043,69.3268,251.726,65.905,247.2214,68.65,256.68" style="stroke:#181818;stroke-width:1.0;"/><text fill="#000000" font-family="sans-serif" font-size="13" lengthAdjust="spacing" textLength="46.541" x="153.97" y="160.5669">incluye</text><text fill="#000000" font-family="sans-serif" font-size="13" lengthAdjust="spacing" textLength="23.0356" x="43.261" y="246.007">1..*</text></g><!--link Paciente to HistClinico--><g id="link_Paciente_HistClinico"><path codeLine="49" d="M783.66,166.39 C760.66,170.87 732.41,176.09 706.97,180 C597.23,196.88 556.42,156.81 458.97,210 C439.44,220.66 427.024,235.7371 416.944,251.6971 " fill="none" id="Paciente-to-HistClinico" style="stroke:#181818;stroke-width:1.0;"/><polygon fill="#181818" points="413.74,256.77,421.9279,251.2966,416.41,252.5426,415.164,247.0246,413.74,256.77" style="stroke:#181818;stroke-width:1.0;"/><text fill="#000000" font-family="sans-serif" font-size="13" lengthAdjust="spacing" textLength="32.9443" x="459.97" y="223.0669">tiene</text><text fill="#000000" font-family="sans-serif" font-size="13" lengthAdjust="spacing" textLength="8.271" x="407.9107" y="246.1189">1</text></g><!--link Paciente to Cita--><g id="link_Paciente_Cita"><path codeLine="50" d="M807.68,180.28 C793.5,194.52 774.41,212.68 755.97,227 C738.94,240.22 723.6774,250.1038 707.2274,259.8838 " fill="none" id="Paciente-to-Cita" style="stroke:#181818;stroke-width:1.0;"/><polygon fill="#181818" points="702.07,262.95,711.8502,261.7889,706.3678,260.3948,707.7619,254.9125,702.07,262.95" style="stroke:#181818;stroke-width:1.0;"/><text fill="#000000" font-family="sans-serif" font-size="13" lengthAdjust="spacing" textLength="45.7729" x="776.97" y="223.0669">solicita</text><text fill="#000000" font-family="sans-serif" font-size="13" lengthAdjust="spacing" textLength="23.0356" x="709.7439" y="255.3184">0..*</text></g><!--link Paciente to Diagnostico--><g id="link_Paciente_Diagnostico"><path codeLine="51" d="M835.67,180.35 C837.9,194.61 838.39,212.78 830.97,227 C785.03,314.98 679.8677,362.8999 611.3277,386.3199 " fill="none" id="Paciente-to-Diagnostico" style="stroke:#181818;stroke-width:1.0;"/><polygon fill="#181818" points="605.65,388.26,615.4599,389.135,610.3814,386.6433,612.8732,381.5648,605.65,388.26" style="stroke:#181818;stroke-width:1.0;"/><text fill="#000000" font-family="sans-serif" font-size="13" lengthAdjust="spacing" textLength="40.3521" x="810.97" y="285.5669">recibe</text><text fill="#000000" font-family="sans-serif" font-size="13" lengthAdjust="spacing" textLength="23.0356" x="613.2191" y="382.5735">0..*</text></g><!--link Paciente to Tratamiento--><g id="link_Paciente_Tratamiento"><path codeLine="52" d="M783.41,177.06 C761.56,186.69 735.27,198.6 711.97,210 C697.5,217.08 694.57,220.21 679.97,227 C656.57,237.88 635.8644,246.5057 612.9344,255.5157 " fill="none" id="Paciente-to-Tratamiento" style="stroke:#181818;stroke-width:1.0;"/><polygon fill="#181818" points="607.35,257.71,617.1894,258.1415,612.0036,255.8814,614.2637,250.6957,607.35,257.71" style="stroke:#181818;stroke-width:1.0;"/><text fill="#000000" font-family="sans-serif" font-size="13" lengthAdjust="spacing" textLength="34.874" x="712.97" y="223.0669">sigue</text><text fill="#000000" font-family="sans-serif" font-size="13" lengthAdjust="spacing" textLength="23.0356" x="615.1043" y="251.4165">0..*</text></g><!--link Paciente to Sala--><g id="link_Paciente_Sala"><path codeLine="53" d="M859.26,180.41 C876.72,194.2 899.41,211.85 919.97,227 C934.47,237.69 945.8906,245.7639 959.7106,255.2939 " fill="none" id="Paciente-to-Sala" style="stroke:#181818;stroke-width:1.0;"/><polygon fill="#181818" points="964.65,258.7,959.5116,250.2978,960.5338,255.8615,954.9701,256.8837,964.65,258.7" style="stroke:#181818;stroke-width:1.0;"/><text fill="#000000" font-family="sans-serif" font-size="13" lengthAdjust="spacing" textLength="68.5547" x="920.97" y="223.0669">ingresa en</text></g><!--link ProfMedico to Especialidad--><g id="link_ProfMedico_Especialidad"><path codeLine="55" d="M263.93,158.79 C217.56,162.88 151.67,175.03 105.97,210 C90.72,221.67 82.789,235.5214 76.679,250.9514 " fill="none" id="ProfMedico-to-Especialidad" style="stroke:#181818;stroke-width:1.0;"/><polygon fill="#181818" points="74.47,256.53,81.5025,249.6348,76.3108,251.8812,74.0645,246.6895,74.47,256.53" style="stroke:#181818;stroke-width:1.0;"/><text fill="#000000" font-family="sans-serif" font-size="13" lengthAdjust="spacing" textLength="78.1714" x="106.97" y="223.0669">pertenece a</text><text fill="#000000" font-family="sans-serif" font-size="13" lengthAdjust="spacing" textLength="23.0356" x="79.1059" y="245.8204">1..*</text></g><!--link ProfMedico to Cita--><g id="link_ProfMedico_Cita"><path codeLine="56" d="M374.03,172.29 C435.98,190.12 539.18,221.68 624.97,257 C630.43,259.25 630.7312,259.2638 636.2212,261.8738 " fill="none" id="ProfMedico-to-Cita" style="stroke:#181818;stroke-width:1.0;"/><polygon fill="#181818" points="641.64,264.45,635.2292,256.9732,637.1243,262.3032,631.7944,264.1983,641.64,264.45" style="stroke:#181818;stroke-width:1.0;"/><text fill="#000000" font-family="sans-serif" font-size="13" lengthAdjust="spacing" textLength="55.8911" x="543.97" y="223.0669">gestiona</text><text fill="#000000" font-family="sans-serif" font-size="13" lengthAdjust="spacing" textLength="23.0356" x="615.0465" y="274.371">0..*</text></g><!--link ProfMedico to Diagnostico--><g id="link_ProfMedico_Diagnostico"><path codeLine="57" d="M279.77,180.4 C269.83,188.44 260.43,198.38 254.97,210 C240.1,241.63 256.66,276.09 285.97,305 C342.03,360.3 425.9564,384.5152 484.4864,395.6852 " fill="none" id="ProfMedico-to-Diagnostico" style="stroke:#181818;stroke-width:1.0;"/><polygon fill="#181818" points="490.38,396.81,482.2894,391.1938,485.4686,395.8727,480.7897,399.052,490.38,396.81" style="stroke:#181818;stroke-width:1.0;"/><text fill="#000000" font-family="sans-serif" font-size="13" lengthAdjust="spacing" textLength="43.3228" x="286.97" y="285.5669">realiza</text><text fill="#000000" font-family="sans-serif" font-size="13" lengthAdjust="spacing" textLength="23.0356" x="459.8258" y="392.0587">0..*</text></g><!--link ProfMedico to Tratamiento--><g id="link_ProfMedico_Tratamiento"><path codeLine="58" d="M328.62,180.35 C336.11,195.74 347.93,215.15 363.97,227 C403.69,256.35 423.53,243.27 470.97,257 C476.73,258.67 476.9733,258.7386 482.9633,260.4986 " fill="none" id="ProfMedico-to-Tratamiento" style="stroke:#181818;stroke-width:1.0;"/><polygon fill="#181818" points="488.72,262.19,481.2126,255.8151,483.9228,260.7805,478.9574,263.4906,488.72,262.19" style="stroke:#181818;stroke-width:1.0;"/><text fill="#000000" font-family="sans-serif" font-size="13" lengthAdjust="spacing" textLength="42.8086" x="364.97" y="223.0669">asigna</text></g><!--link ProfMedico to HistClinico--><g id="link_ProfMedico_HistClinico"><path codeLine="59" d="M284.43,180.3 C268.87,193.75 256.16,211.1 266.97,227 C285.04,253.59 312.8788,265.512 341.9588,272.112 " fill="none" id="ProfMedico-to-HistClinico" style="stroke:#181818;stroke-width:1.0;"/><polygon fill="#181818" points="347.81,273.44,339.9185,267.5472,342.934,272.3333,338.1479,275.3488,347.81,273.44" style="stroke:#181818;stroke-width:1.0;"/><text fill="#000000" font-family="sans-serif" font-size="13" lengthAdjust="spacing" textLength="55.0278" x="267.97" y="223.0669">consulta</text></g><!--link Tratamiento to Diagnostico--><g id="link_Tratamiento_Diagnostico"><path codeLine="61" d="M547.97,305.42 C547.97,327.31 547.97,353.8 547.97,375.66 " fill="none" id="Tratamiento-to-Diagnostico" style="stroke:#181818;stroke-width:1.0;"/><polygon fill="#181818" points="547.97,381.66,551.97,372.66,547.97,376.66,543.97,372.66,547.97,381.66" style="stroke:#181818;stroke-width:1.0;"/><text fill="#000000" font-family="sans-serif" font-size="13" lengthAdjust="spacing" textLength="70.2305" x="548.97" y="348.0669">se basa en</text></g><!--link HistClinico to Diagnostico--><g id="link_HistClinico_Diagnostico"><path codeLine="62" d="M428.96,305.42 C455.12,327.31 489.348,355.9501 515.478,377.8101 " fill="none" id="HistClinico-to-Diagnostico" style="stroke:#181818;stroke-width:1.0;"/><polygon fill="#181818" points="520.08,381.66,515.7437,372.8171,516.245,378.4517,510.6104,378.9531,520.08,381.66" style="stroke:#181818;stroke-width:1.0;"/><text fill="#000000" font-family="sans-serif" font-size="13" lengthAdjust="spacing" textLength="46.541" x="484.97" y="348.0669">incluye</text><text fill="#000000" font-family="sans-serif" font-size="13" lengthAdjust="spacing" textLength="23.0356" x="487.4843" y="370.9821">0..*</text></g><!--link Administrativo to Cita--><g id="link_Administrativo_Cita"><path codeLine="64" d="M616.16,180.24 C613.8,194.29 612.87,212.28 618.97,227 C623.8,238.66 628.2016,244.9876 637.2416,253.4576 " fill="none" id="Administrativo-to-Cita" style="stroke:#181818;stroke-width:1.0;"/><polygon fill="#181818" points="641.62,257.56,637.7873,248.4875,637.9713,254.1414,632.3174,254.3254,641.62,257.56" style="stroke:#181818;stroke-width:1.0;"/><text fill="#000000" font-family="sans-serif" font-size="13" lengthAdjust="spacing" textLength="55.8911" x="619.97" y="223.0669">gestiona</text><text fill="#000000" font-family="sans-serif" font-size="13" lengthAdjust="spacing" textLength="23.0356" x="636.3244" y="245.9437">0..*</text></g><!--link Urgencias to Paciente--><g id="link_Urgencias_Paciente"><path codeLine="66" d="M978.93,55.42 C946.19,77.31 902.5681,106.4655 869.8681,128.3255 " fill="none" id="Urgencias-to-Paciente" style="stroke:#181818;stroke-width:1.0;"/><polygon fill="#181818" points="864.88,131.66,874.5851,129.9836,869.0367,128.8812,870.1391,123.3328,864.88,131.66" style="stroke:#181818;stroke-width:1.0;"/><text fill="#000000" font-family="sans-serif" font-size="13" lengthAdjust="spacing" textLength="49.1626" x="933.97" y="98.0669">atiende</text></g><!--link Urgencias to ProfMedico--><g id="link_Urgencias_ProfMedico"><path codeLine="67" d="M962.58,41.09 C835.08,63.66 510.9982,121.0142 379.8182,144.2342 " fill="none" id="Urgencias-to-ProfMedico" style="stroke:#181818;stroke-width:1.0;"/><polygon fill="#181818" points="373.91,145.28,383.4694,147.6501,378.8335,144.4085,382.075,139.7725,373.91,145.28" style="stroke:#181818;stroke-width:1.0;"/><text fill="#000000" font-family="sans-serif" font-size="13" lengthAdjust="spacing" textLength="56.1958" x="709.97" y="98.0669">colabora</text></g><!--link Urgencias to Diagnostico--><g id="link_Urgencias_Diagnostico"><path codeLine="68" d="M1026.51,55.27 C1052.34,106.71 1104.22,231.39 1043.97,305 C989.09,372.04 730.3094,394.7831 611.6694,401.8531 " fill="none" id="Urgencias-to-Diagnostico" style="stroke:#181818;stroke-width:1.0;"/><polygon fill="#181818" points="605.68,402.21,614.902,405.6675,610.6711,401.9126,614.4261,397.6817,605.68,402.21" style="stroke:#181818;stroke-width:1.0;"/><text fill="#000000" font-family="sans-serif" font-size="13" lengthAdjust="spacing" textLength="45.7983" x="1071.97" y="223.0669">genera</text></g><!--SRC=[VLB1IiGm4BtdAuOz2hlejGT1gk154DGFc4rcoq0sMP9KKF7VdRRQJPgjFPMyDs_clHbjCKPeoQNWNz3s1hwK-bPAZ-_Fg5aWaaUGBmE2FpoHOUqdw8myn1DfHii6JLNMSiBgyPwnSpwc2sAl0HCUXn4gw95ZQYsxkIh3ta97JeQ85I8MSQbqPuuY4vFqulTSB4zbkxs5pSrkTxN9lJTmyE68niF9XpN-sBE193PeZLEarW0xRViFKcfUmCJT5BR_D4lIzIWu9jr0z9Qr_5xavC4t46I0_MMnV0sYoLs_uFrQPDS5YWZaPF9pIki-JnIIED04M1KKFZgICRrROosTI8FFYbkwGB5HwvNnQkzYRoKzbTSElB9X9DZZv3iNM1rmNk_YzFxnhSutFR3czCN8S0I6beJyIBMtkFS15vnoA44eu0y0]--></g></svg>