<svg xmlns="http://www.w3.org/2000/svg" xmlns:xlink="http://www.w3.org/1999/xlink" contentStyleType="text/css" height="664px" preserveAspectRatio="none" style="width:211px;height:664px;background:#FFFFFF;" version="1.1" viewBox="0 0 211 664" width="211px" zoomAndPan="magnify"><defs/><g><ellipse cx="111.1" cy="16" fill="#222222" rx="10" ry="10" style="stroke:#222222;stroke-width:1.0;"/><g id="Registrado"><rect fill="#F1F1F1" height="50" rx="12.5" ry="12.5" style="stroke:#181818;stroke-width:0.5;" width="95.6875" x="63.26" y="86"/><line style="stroke:#181818;stroke-width:0.5;" x1="63.26" x2="158.9475" y1="112.2969" y2="112.2969"/><text fill="#000000" font-family="sans-serif" font-size="14" lengthAdjust="spacing" textLength="75.6875" x="73.26" y="103.9951">Registrado</text></g><g id="En_espera"><rect fill="#F1F1F1" height="50" rx="12.5" ry="12.5" style="stroke:#181818;stroke-width:0.5;" width="92.4609" x="64.87" y="196"/><line style="stroke:#181818;stroke-width:0.5;" x1="64.87" x2="157.3309" y1="222.2969" y2="222.2969"/><text fill="#000000" font-family="sans-serif" font-size="14" lengthAdjust="spacing" textLength="72.4609" x="74.87" y="213.9951">En_espera</text></g><g id="En_tratamiento"><rect fill="#F1F1F1" height="50" rx="12.5" ry="12.5" style="stroke:#181818;stroke-width:0.5;" width="127.6797" x="47.26" y="306"/><line style="stroke:#181818;stroke-width:0.5;" x1="47.26" x2="174.9397" y1="332.2969" y2="332.2969"/><text fill="#000000" font-family="sans-serif" font-size="14" lengthAdjust="spacing" textLength="107.6797" x="57.26" y="323.9951">En_tratamiento</text></g><g id="Recuperado"><rect fill="#F1F1F1" height="50" rx="12.5" ry="12.5" style="stroke:#181818;stroke-width:0.5;" width="104.1982" x="7" y="416"/><line style="stroke:#181818;stroke-width:0.5;" x1="7" x2="111.1982" y1="442.2969" y2="442.2969"/><text fill="#000000" font-family="sans-serif" font-size="14" lengthAdjust="spacing" textLength="84.1982" x="17" y="433.9951">Recuperado</text></g><g id="Fallecido"><rect fill="#F1F1F1" height="50" rx="12.5" ry="12.5" style="stroke:#181818;stroke-width:0.5;" width="82.0635" x="122.07" y="526"/><line style="stroke:#181818;stroke-width:0.5;" x1="122.07" x2="204.1335" y1="552.2969" y2="552.2969"/><text fill="#000000" font-family="sans-serif" font-size="14" lengthAdjust="spacing" textLength="62.0635" x="132.07" y="543.9951">Fallecido</text></g><g id="Alta"><rect fill="#F1F1F1" height="50" rx="12.5" ry="12.5" style="stroke:#181818;stroke-width:0.5;" width="50" x="35.1" y="526"/><line style="stroke:#181818;stroke-width:0.5;" x1="35.1" x2="85.1" y1="552.2969" y2="552.2969"/><text fill="#000000" font-family="sans-serif" font-size="14" lengthAdjust="spacing" textLength="27.5352" x="46.3324" y="543.9951">Alta</text></g><ellipse cx="111.1" cy="647" fill="none" rx="11" ry="11" style="stroke:#222222;stroke-width:1.0;"/><ellipse cx="111.1" cy="647" fill="#222222" rx="6" ry="6" style="stroke:#222222;stroke-width:1.0;"/><!--link *start* to Registrado--><g id="link_*start*_Registrado"><path d="M111.1,26.26 C111.1,39.95 111.1,60.07 111.1,79.52 " fill="none" id="*start*-to-Registrado" style="stroke:#181818;stroke-width:1.0;"/><polygon fill="#181818" points="111.1,85.52,115.1,76.52,111.1,80.52,107.1,76.52,111.1,85.52" style="stroke:#181818;stroke-width:1.0;"/></g><!--link Registrado to En_espera--><g id="link_Registrado_En_espera"><path d="M111.1,136.24 C111.1,154.02 111.1,172.08 111.1,189.84 " fill="none" id="Registrado-to-En_espera" style="stroke:#181818;stroke-width:1.0;"/><polygon fill="#181818" points="111.1,195.84,115.1,186.84,111.1,190.84,107.1,186.84,111.1,195.84" style="stroke:#181818;stroke-width:1.0;"/></g><!--link En_espera to En_tratamiento--><g id="link_En_espera_En_tratamiento"><path d="M111.1,246.24 C111.1,264.02 111.1,282.08 111.1,299.84 " fill="none" id="En_espera-to-En_tratamiento" style="stroke:#181818;stroke-width:1.0;"/><polygon fill="#181818" points="111.1,305.84,115.1,296.84,111.1,300.84,107.1,296.84,111.1,305.84" style="stroke:#181818;stroke-width:1.0;"/></g><!--link En_tratamiento to Recuperado--><g id="link_En_tratamiento_Recuperado"><path d="M99.43,356.24 C90.87,374.02 81.8826,392.6739 73.3326,410.4339 " fill="none" id="En_tratamiento-to-Recuperado" style="stroke:#181818;stroke-width:1.0;"/><polygon fill="#181818" points="70.73,415.84,78.238,409.4659,72.8988,411.3349,71.0298,405.9957,70.73,415.84" style="stroke:#181818;stroke-width:1.0;"/></g><!--link En_tratamiento to Fallecido--><g id="link_En_tratamiento_Fallecido"><path d="M116.86,356.16 C126.86,398.07 145.9083,477.9136 155.9183,519.8936 " fill="none" id="En_tratamiento-to-Fallecido" style="stroke:#181818;stroke-width:1.0;"/><polygon fill="#181818" points="157.31,525.73,159.1134,516.0477,156.1503,520.8664,151.3316,517.9032,157.31,525.73" style="stroke:#181818;stroke-width:1.0;"/></g><!--link Recuperado to Alta--><g id="link_Recuperado_Alta"><path d="M59.32,466.24 C59.49,484.02 59.6526,502.0803 59.8226,519.8403 " fill="none" id="Recuperado-to-Alta" style="stroke:#181818;stroke-width:1.0;"/><polygon fill="#181818" points="59.88,525.84,63.7937,516.8021,59.8321,520.8402,55.794,516.8787,59.88,525.84" style="stroke:#181818;stroke-width:1.0;"/></g><!--link Alta to *end*--><g id="link_Alta_*end*"><path d="M73.23,576.21 C83.98,596.01 95.7178,617.6567 103.2678,631.5667 " fill="none" id="Alta-to-*end*" style="stroke:#181818;stroke-width:1.0;"/><polygon fill="#181818" points="106.13,636.84,105.3522,627.0219,103.7448,632.4456,98.3211,630.8382,106.13,636.84" style="stroke:#181818;stroke-width:1.0;"/></g><!--link Fallecido to *end*--><g id="link_Fallecido_*end*"><path d="M149.71,576.21 C138.75,596.01 126.763,617.679 119.073,631.589 " fill="none" id="Fallecido-to-*end*" style="stroke:#181818;stroke-width:1.0;"/><polygon fill="#181818" points="116.17,636.84,124.0251,630.8988,118.5891,632.4642,117.0238,627.0282,116.17,636.84" style="stroke:#181818;stroke-width:1.0;"/></g><!--SRC=[YzQALT3LjLC8IatFB2ufIap9vq8mmJAkUV6fnGMfHObSS1PC7AYe934tCpMl99yBbGirCxaKf3m5gwnROavEQd8cs4AOEh24Oqv98XU80FEYjMAvu4fX8W00]--></g></svg>