<svg xmlns="http://www.w3.org/2000/svg" xmlns:xlink="http://www.w3.org/1999/xlink" contentStyleType="text/css" height="562px" preserveAspectRatio="none" style="width:1572px;height:562px;background:#FFFFFF;" version="1.1" viewBox="0 0 1572 562" width="1572px" zoomAndPan="magnify"><defs/><g><!--class CentroSalud--><g id="elem_CentroSalud"><rect codeLine="1" fill="#F1F1F1" height="48" id="CentroSalud" rx="2.5" ry="2.5" style="stroke:#181818;stroke-width:0.5;" width="144.5879" x="1066.67" y="7"/><ellipse cx="1081.67" cy="23" fill="#ADD1B2" rx="11" ry="11" style="stroke:#181818;stroke-width:1.0;"/><path d="M1085.7794,29 L1078.0606,29 L1078.0606,16.6094 L1085.7794,16.6094 L1085.7794,18.7656 L1080.5138,18.7656 L1080.5138,21.4375 L1085.2794,21.4375 L1085.2794,23.5938 L1080.5138,23.5938 L1080.5138,26.8438 L1085.7794,26.8438 L1085.7794,29 Z " fill="#000000"/><text fill="#000000" font-family="sans-serif" font-size="14" lengthAdjust="spacing" textLength="112.5879" x="1095.67" y="27.8467">Centro de Salud</text><line style="stroke:#181818;stroke-width:0.5;" x1="1067.67" x2="1210.2579" y1="39" y2="39"/><line style="stroke:#181818;stroke-width:0.5;" x1="1067.67" x2="1210.2579" y1="47" y2="47"/></g><!--class Paciente--><g id="elem_Paciente"><rect codeLine="5" fill="#F1F1F1" height="48" id="Paciente" rx="2.5" ry="2.5" style="stroke:#181818;stroke-width:0.5;" width="92.1973" x="765.87" y="132"/><ellipse cx="780.87" cy="148" fill="#ADD1B2" rx="11" ry="11" style="stroke:#181818;stroke-width:1.0;"/><path d="M784.9794,154 L777.2606,154 L777.2606,141.6094 L784.9794,141.6094 L784.9794,143.7656 L779.7138,143.7656 L779.7138,146.4375 L784.4794,146.4375 L784.4794,148.5938 L779.7138,148.5938 L779.7138,151.8438 L784.9794,151.8438 L784.9794,154 Z " fill="#000000"/><text fill="#000000" font-family="sans-serif" font-size="14" lengthAdjust="spacing" textLength="60.1973" x="794.87" y="152.8467">Paciente</text><line style="stroke:#181818;stroke-width:0.5;" x1="766.87" x2="857.0673" y1="164" y2="164"/><line style="stroke:#181818;stroke-width:0.5;" x1="766.87" x2="857.0673" y1="172" y2="172"/></g><!--class ProfMedico--><g id="elem_ProfMedico"><rect codeLine="9" fill="#F1F1F1" height="48" id="ProfMedico" rx="2.5" ry="2.5" style="stroke:#181818;stroke-width:0.5;" width="118.3242" x="299.81" y="132"/><ellipse cx="314.81" cy="148" fill="#ADD1B2" rx="11" ry="11" style="stroke:#181818;stroke-width:1.0;"/><path d="M318.9194,154 L311.2006,154 L311.2006,141.6094 L318.9194,141.6094 L318.9194,143.7656 L313.6538,143.7656 L313.6538,146.4375 L318.4194,146.4375 L318.4194,148.5938 L313.6538,148.5938 L313.6538,151.8438 L318.9194,151.8438 L318.9194,154 Z " fill="#000000"/><text fill="#000000" font-family="sans-serif" font-size="14" lengthAdjust="spacing" textLength="86.3242" x="328.81" y="152.8467">Prof. M&#233;dico</text><line style="stroke:#181818;stroke-width:0.5;" x1="300.81" x2="417.1342" y1="164" y2="164"/><line style="stroke:#181818;stroke-width:0.5;" x1="300.81" x2="417.1342" y1="172" y2="172"/></g><!--class Especialidad--><g id="elem_Especialidad"><rect codeLine="13" fill="#F1F1F1" height="48" id="Especialidad" rx="2.5" ry="2.5" style="stroke:#181818;stroke-width:0.5;" width="119.9375" x="7" y="257"/><ellipse cx="22" cy="273" fill="#ADD1B2" rx="11" ry="11" style="stroke:#181818;stroke-width:1.0;"/><path d="M26.1094,279 L18.3906,279 L18.3906,266.6094 L26.1094,266.6094 L26.1094,268.7656 L20.8438,268.7656 L20.8438,271.4375 L25.6094,271.4375 L25.6094,273.5938 L20.8438,273.5938 L20.8438,276.8438 L26.1094,276.8438 L26.1094,279 Z " fill="#000000"/><text fill="#000000" font-family="sans-serif" font-size="14" lengthAdjust="spacing" textLength="87.9375" x="36" y="277.8467">Especialidad</text><line style="stroke:#181818;stroke-width:0.5;" x1="8" x2="125.9375" y1="289" y2="289"/><line style="stroke:#181818;stroke-width:0.5;" x1="8" x2="125.9375" y1="297" y2="297"/></g><!--class HistClinico--><g id="elem_HistClinico"><rect codeLine="17" fill="#F1F1F1" height="48" id="HistClinico" rx="2.5" ry="2.5" style="stroke:#181818;stroke-width:0.5;" width="114.6807" x="274.63" y="257"/><ellipse cx="289.63" cy="273" fill="#ADD1B2" rx="11" ry="11" style="stroke:#181818;stroke-width:1.0;"/><path d="M293.7394,279 L286.0206,279 L286.0206,266.6094 L293.7394,266.6094 L293.7394,268.7656 L288.4738,268.7656 L288.4738,271.4375 L293.2394,271.4375 L293.2394,273.5938 L288.4738,273.5938 L288.4738,276.8438 L293.7394,276.8438 L293.7394,279 Z " fill="#000000"/><text fill="#000000" font-family="sans-serif" font-size="14" lengthAdjust="spacing" textLength="82.6807" x="303.63" y="277.8467">Hist. Cl&#237;nico</text><line style="stroke:#181818;stroke-width:0.5;" x1="275.63" x2="388.3107" y1="289" y2="289"/><line style="stroke:#181818;stroke-width:0.5;" x1="275.63" x2="388.3107" y1="297" y2="297"/></g><!--class Diagnostico--><g id="elem_Diagnostico"><rect codeLine="21" fill="#F1F1F1" height="48" id="Diagnostico" rx="2.5" ry="2.5" style="stroke:#181818;stroke-width:0.5;" width="114.5098" x="479.71" y="507"/><ellipse cx="494.71" cy="523" fill="#ADD1B2" rx="11" ry="11" style="stroke:#181818;stroke-width:1.0;"/><path d="M498.8194,529 L491.1006,529 L491.1006,516.6094 L498.8194,516.6094 L498.8194,518.7656 L493.5538,518.7656 L493.5538,521.4375 L498.3194,521.4375 L498.3194,523.5938 L493.5538,523.5938 L493.5538,526.8438 L498.8194,526.8438 L498.8194,529 Z " fill="#000000"/><text fill="#000000" font-family="sans-serif" font-size="14" lengthAdjust="spacing" textLength="82.5098" x="508.71" y="527.8467">Diagn&#243;stico</text><line style="stroke:#181818;stroke-width:0.5;" x1="480.71" x2="593.2198" y1="539" y2="539"/><line style="stroke:#181818;stroke-width:0.5;" x1="480.71" x2="593.2198" y1="547" y2="547"/></g><!--class Tratamiento--><g id="elem_Tratamiento"><rect codeLine="25" fill="#F1F1F1" height="48" id="Tratamiento" rx="2.5" ry="2.5" style="stroke:#181818;stroke-width:0.5;" width="118.0234" x="808.96" y="382"/><ellipse cx="823.96" cy="398" fill="#ADD1B2" rx="11" ry="11" style="stroke:#181818;stroke-width:1.0;"/><path d="M828.0694,404 L820.3506,404 L820.3506,391.6094 L828.0694,391.6094 L828.0694,393.7656 L822.8038,393.7656 L822.8038,396.4375 L827.5694,396.4375 L827.5694,398.5938 L822.8038,398.5938 L822.8038,401.8438 L828.0694,401.8438 L828.0694,404 Z " fill="#000000"/><text fill="#000000" font-family="sans-serif" font-size="14" lengthAdjust="spacing" textLength="86.0234" x="837.96" y="402.8467">Tratamiento</text><line style="stroke:#181818;stroke-width:0.5;" x1="809.96" x2="925.9834" y1="414" y2="414"/><line style="stroke:#181818;stroke-width:0.5;" x1="809.96" x2="925.9834" y1="422" y2="422"/></g><!--class Cita--><g id="elem_Cita"><rect codeLine="29" fill="#F1F1F1" height="48" id="Cita" rx="2.5" ry="2.5" style="stroke:#181818;stroke-width:0.5;" width="59.7334" x="424.1" y="257"/><ellipse cx="439.1" cy="273" fill="#ADD1B2" rx="11" ry="11" style="stroke:#181818;stroke-width:1.0;"/><path d="M443.2094,279 L435.4906,279 L435.4906,266.6094 L443.2094,266.6094 L443.2094,268.7656 L437.9438,268.7656 L437.9438,271.4375 L442.7094,271.4375 L442.7094,273.5938 L437.9438,273.5938 L437.9438,276.8438 L443.2094,276.8438 L443.2094,279 Z " fill="#000000"/><text fill="#000000" font-family="sans-serif" font-size="14" lengthAdjust="spacing" textLength="27.7334" x="453.1" y="277.8467">Cita</text><line style="stroke:#181818;stroke-width:0.5;" x1="425.1" x2="482.8334" y1="289" y2="289"/><line style="stroke:#181818;stroke-width:0.5;" x1="425.1" x2="482.8334" y1="297" y2="297"/></g><!--class Urgencias--><g id="elem_Urgencias"><rect codeLine="33" fill="#F1F1F1" height="48" id="Urgencias" rx="2.5" ry="2.5" style="stroke:#181818;stroke-width:0.5;" width="101.8359" x="1114.05" y="132"/><ellipse cx="1129.05" cy="148" fill="#ADD1B2" rx="11" ry="11" style="stroke:#181818;stroke-width:1.0;"/><path d="M1133.1594,154 L1125.4406,154 L1125.4406,141.6094 L1133.1594,141.6094 L1133.1594,143.7656 L1127.8938,143.7656 L1127.8938,146.4375 L1132.6594,146.4375 L1132.6594,148.5938 L1127.8938,148.5938 L1127.8938,151.8438 L1133.1594,151.8438 L1133.1594,154 Z " fill="#000000"/><text fill="#000000" font-family="sans-serif" font-size="14" lengthAdjust="spacing" textLength="69.8359" x="1143.05" y="152.8467">Urgencias</text><line style="stroke:#181818;stroke-width:0.5;" x1="1115.05" x2="1214.8859" y1="164" y2="164"/><line style="stroke:#181818;stroke-width:0.5;" x1="1115.05" x2="1214.8859" y1="172" y2="172"/></g><!--class Ingreso--><g id="elem_Ingreso"><rect codeLine="37" fill="#F1F1F1" height="48" id="Ingreso" rx="2.5" ry="2.5" style="stroke:#181818;stroke-width:0.5;" width="84.1172" x="1079.91" y="257"/><ellipse cx="1094.91" cy="273" fill="#ADD1B2" rx="11" ry="11" style="stroke:#181818;stroke-width:1.0;"/><path d="M1099.0194,279 L1091.3006,279 L1091.3006,266.6094 L1099.0194,266.6094 L1099.0194,268.7656 L1093.7538,268.7656 L1093.7538,271.4375 L1098.5194,271.4375 L1098.5194,273.5938 L1093.7538,273.5938 L1093.7538,276.8438 L1099.0194,276.8438 L1099.0194,279 Z " fill="#000000"/><text fill="#000000" font-family="sans-serif" font-size="14" lengthAdjust="spacing" textLength="52.1172" x="1108.91" y="277.8467">Ingreso</text><line style="stroke:#181818;stroke-width:0.5;" x1="1080.91" x2="1163.0272" y1="289" y2="289"/><line style="stroke:#181818;stroke-width:0.5;" x1="1080.91" x2="1163.0272" y1="297" y2="297"/></g><!--class Sala--><g id="elem_Sala"><rect codeLine="41" fill="#F1F1F1" height="48" id="Sala" rx="2.5" ry="2.5" style="stroke:#181818;stroke-width:0.5;" width="61.9346" x="1334" y="382"/><ellipse cx="1349" cy="398" fill="#ADD1B2" rx="11" ry="11" style="stroke:#181818;stroke-width:1.0;"/><path d="M1353.1094,404 L1345.3906,404 L1345.3906,391.6094 L1353.1094,391.6094 L1353.1094,393.7656 L1347.8438,393.7656 L1347.8438,396.4375 L1352.6094,396.4375 L1352.6094,398.5938 L1347.8438,398.5938 L1347.8438,401.8438 L1353.1094,401.8438 L1353.1094,404 Z " fill="#000000"/><text fill="#000000" font-family="sans-serif" font-size="14" lengthAdjust="spacing" textLength="29.9346" x="1363" y="402.8467">Sala</text><line style="stroke:#181818;stroke-width:0.5;" x1="1335" x2="1394.9346" y1="414" y2="414"/><line style="stroke:#181818;stroke-width:0.5;" x1="1335" x2="1394.9346" y1="422" y2="422"/></g><!--class RecursoMedico--><g id="elem_RecursoMedico"><rect codeLine="45" fill="#F1F1F1" height="48" id="RecursoMedico" rx="2.5" ry="2.5" style="stroke:#181818;stroke-width:0.5;" width="142.708" x="1293.61" y="507"/><ellipse cx="1308.61" cy="523" fill="#ADD1B2" rx="11" ry="11" style="stroke:#181818;stroke-width:1.0;"/><path d="M1312.7194,529 L1305.0006,529 L1305.0006,516.6094 L1312.7194,516.6094 L1312.7194,518.7656 L1307.4538,518.7656 L1307.4538,521.4375 L1312.2194,521.4375 L1312.2194,523.5938 L1307.4538,523.5938 L1307.4538,526.8438 L1312.7194,526.8438 L1312.7194,529 Z " fill="#000000"/><text fill="#000000" font-family="sans-serif" font-size="14" lengthAdjust="spacing" textLength="110.708" x="1322.61" y="527.8467">Recurso M&#233;dico</text><line style="stroke:#181818;stroke-width:0.5;" x1="1294.61" x2="1435.318" y1="539" y2="539"/><line style="stroke:#181818;stroke-width:0.5;" x1="1294.61" x2="1435.318" y1="547" y2="547"/></g><!--class Consulta--><g id="elem_Consulta"><rect codeLine="49" fill="#F1F1F1" height="48" id="Consulta" rx="2.5" ry="2.5" style="stroke:#181818;stroke-width:0.5;" width="93.3389" x="633.3" y="257"/><ellipse cx="648.3" cy="273" fill="#ADD1B2" rx="11" ry="11" style="stroke:#181818;stroke-width:1.0;"/><path d="M652.4094,279 L644.6906,279 L644.6906,266.6094 L652.4094,266.6094 L652.4094,268.7656 L647.1438,268.7656 L647.1438,271.4375 L651.9094,271.4375 L651.9094,273.5938 L647.1438,273.5938 L647.1438,276.8438 L652.4094,276.8438 L652.4094,279 Z " fill="#000000"/><text fill="#000000" font-family="sans-serif" font-size="14" lengthAdjust="spacing" textLength="61.3389" x="662.3" y="277.8467">Consulta</text><line style="stroke:#181818;stroke-width:0.5;" x1="634.3" x2="725.6389" y1="289" y2="289"/><line style="stroke:#181818;stroke-width:0.5;" x1="634.3" x2="725.6389" y1="297" y2="297"/></g><!--link CentroSalud to ProfMedico--><g id="link_CentroSalud_ProfMedico"><path codeLine="53" d="M1066.29,43.46 C913.03,67.63 565.1868,122.4855 424.3268,144.6955 " fill="none" id="CentroSalud-to-ProfMedico" style="stroke:#181818;stroke-width:1.0;"/><polygon fill="#181818" points="418.4,145.63,427.9132,148.1794,423.339,144.8512,426.6672,140.2771,418.4,145.63" style="stroke:#181818;stroke-width:1.0;"/><text fill="#000000" font-family="sans-serif" font-size="13" lengthAdjust="spacing" textLength="80.3931" x="795.97" y="98.0669">formado por</text><text fill="#000000" font-family="sans-serif" font-size="13" lengthAdjust="spacing" textLength="23.0356" x="426.1597" y="140.7496">1..*</text></g><!--link CentroSalud to Sala--><g id="link_CentroSalud_Sala"><path codeLine="54" d="M1179.85,55.41 C1236.78,90.66 1337.52,163.36 1377.97,257 C1395.72,298.08 1385.289,345.752 1375.529,375.882 " fill="none" id="CentroSalud-to-Sala" style="stroke:#181818;stroke-width:1.0;"/><polygon fill="#181818" points="1373.68,381.59,1380.2588,374.2607,1375.2208,376.8333,1372.6482,371.7953,1373.68,381.59" style="stroke:#181818;stroke-width:1.0;"/><text fill="#000000" font-family="sans-serif" font-size="13" lengthAdjust="spacing" textLength="32.9443" x="1362.97" y="223.0669">tiene</text><text fill="#000000" font-family="sans-serif" font-size="13" lengthAdjust="spacing" textLength="23.0356" x="1350.0049" y="370.895">1..*</text></g><!--link CentroSalud to Especialidad--><g id="link_CentroSalud_Especialidad"><path codeLine="55" d="M1066.31,31.5 C910.47,32.26 533.9,43.94 233.97,132 C159.21,153.95 122.61,146.85 76.97,210 C67.33,223.33 65.05,235.89 65.05,250.54 " fill="none" id="CentroSalud-to-Especialidad" style="stroke:#181818;stroke-width:1.0;"/><polygon fill="#181818" points="65.05,256.54,69.05,247.54,65.05,251.54,61.05,247.54,65.05,256.54" style="stroke:#181818;stroke-width:1.0;"/><text fill="#000000" font-family="sans-serif" font-size="13" lengthAdjust="spacing" textLength="46.541" x="234.97" y="160.5669">incluye</text><text fill="#000000" font-family="sans-serif" font-size="13" lengthAdjust="spacing" textLength="23.0356" x="38.7835" y="245.8328">1..*</text></g><!--link CentroSalud to RecursoMedico--><g id="link_CentroSalud_RecursoMedico"><path codeLine="56" d="M1211.66,42.15 C1315.52,58.72 1493.97,95.81 1493.97,155 C1493.97,155 1493.97,155 1493.97,407 C1493.97,452.33 1456.9351,483.0931 1420.7951,503.6531 " fill="none" id="CentroSalud-to-RecursoMedico" style="stroke:#181818;stroke-width:1.0;"/><polygon fill="#181818" points="1415.58,506.62,1425.3806,505.6464,1419.9259,504.1476,1421.4248,498.6929,1415.58,506.62" style="stroke:#181818;stroke-width:1.0;"/><text fill="#000000" font-family="sans-serif" font-size="13" lengthAdjust="spacing" textLength="69.5259" x="1494.97" y="285.5669">administra</text><text fill="#000000" font-family="sans-serif" font-size="13" lengthAdjust="spacing" textLength="23.0356" x="1402.1189" y="495.9323">1..*</text></g><!--link Paciente to HistClinico--><g id="link_Paciente_HistClinico"><path codeLine="58" d="M765.55,160.91 C702.21,167.08 585.65,181.44 489.97,210 C450.3,221.84 412.8562,238.5961 381.8162,253.9761 " fill="none" id="Paciente-to-HistClinico" style="stroke:#181818;stroke-width:1.0;"/><polygon fill="#181818" points="376.44,256.64,386.2803,256.2284,380.9202,254.4201,382.7284,249.0601,376.44,256.64" style="stroke:#181818;stroke-width:1.0;"/><text fill="#000000" font-family="sans-serif" font-size="13" lengthAdjust="spacing" textLength="32.9443" x="490.97" y="223.0669">tiene</text><text fill="#000000" font-family="sans-serif" font-size="13" lengthAdjust="spacing" textLength="8.271" x="378.3375" y="245.9572">1</text></g><!--link Paciente to Cita--><g id="link_Paciente_Cita"><path codeLine="59" d="M765.59,174.96 C741.07,184.76 710.62,197.44 683.97,210 C669.4,216.87 667.1,221.49 651.97,227 C591.76,248.91 572.24,238.28 510.97,257 C502.09,259.71 498.2214,260.9882 489.6514,264.4582 " fill="none" id="Paciente-to-Cita" style="stroke:#181818;stroke-width:1.0;"/><polygon fill="#181818" points="484.09,266.71,493.9333,267.0399,488.7245,264.8335,490.9309,259.6247,484.09,266.71" style="stroke:#181818;stroke-width:1.0;"/><text fill="#000000" font-family="sans-serif" font-size="13" lengthAdjust="spacing" textLength="45.7729" x="684.97" y="223.0669">solicita</text><text fill="#000000" font-family="sans-serif" font-size="13" lengthAdjust="spacing" textLength="23.0356" x="491.7676" y="259.7716">0..*</text></g><!--link Paciente to Diagnostico--><g id="link_Paciente_Diagnostico"><path codeLine="60" d="M814.2,180.47 C814.66,194.44 813.72,212.26 807.97,227 C791.67,268.77 782.17,281.52 743.97,305 C691.61,337.19 651.06,290.21 608.97,335 C579.7,366.15 608.12,389.66 593.97,430 C584.18,457.91 569.9894,481.9785 556.9494,501.5285 " fill="none" id="Paciente-to-Diagnostico" style="stroke:#181818;stroke-width:1.0;"/><polygon fill="#181818" points="553.62,506.52,561.9417,501.2523,556.3945,502.3604,555.2864,496.8131,553.62,506.52" style="stroke:#181818;stroke-width:1.0;"/><text fill="#000000" font-family="sans-serif" font-size="13" lengthAdjust="spacing" textLength="40.3521" x="609.97" y="348.0669">recibe</text><text fill="#000000" font-family="sans-serif" font-size="13" lengthAdjust="spacing" textLength="23.0356" x="531.8809" y="495.808">0..*</text></g><!--link Paciente to Tratamiento--><g id="link_Paciente_Tratamiento"><path codeLine="61" d="M843.05,180.28 C851.79,188.6 860.2,198.74 864.97,210 C889.38,267.68 881.1786,337.9314 874.1386,375.7314 " fill="none" id="Paciente-to-Tratamiento" style="stroke:#181818;stroke-width:1.0;"/><polygon fill="#181818" points="873.04,381.63,878.6202,373.5145,873.9555,376.7145,870.7555,372.0498,873.04,381.63" style="stroke:#181818;stroke-width:1.0;"/><text fill="#000000" font-family="sans-serif" font-size="13" lengthAdjust="spacing" textLength="34.874" x="880.97" y="285.5669">sigue</text><text fill="#000000" font-family="sans-serif" font-size="13" lengthAdjust="spacing" textLength="23.0356" x="848.4766" y="370.9448">0..*</text></g><!--link Paciente to Ingreso--><g id="link_Paciente_Ingreso"><path codeLine="62" d="M858.38,175.41 C918.34,199.21 1016.293,238.067 1074.153,261.027 " fill="none" id="Paciente-to-Ingreso" style="stroke:#181818;stroke-width:1.0;"/><polygon fill="#181818" points="1079.73,263.24,1072.8399,256.2025,1075.0825,261.3958,1069.8892,263.6384,1079.73,263.24" style="stroke:#181818;stroke-width:1.0;"/><text fill="#000000" font-family="sans-serif" font-size="13" lengthAdjust="spacing" textLength="32.9443" x="985.97" y="223.0669">tiene</text><text fill="#000000" font-family="sans-serif" font-size="13" lengthAdjust="spacing" textLength="23.0356" x="1048.8398" y="256.6066">0..*</text></g><!--link Paciente to Consulta--><g id="link_Paciente_Consulta"><path codeLine="63" d="M788.15,180.21 C773.98,193.94 755.57,211.59 738.97,227 C728.37,236.84 721.0134,243.5214 710.7434,252.7014 " fill="none" id="Paciente-to-Consulta" style="stroke:#181818;stroke-width:1.0;"/><polygon fill="#181818" points="706.27,256.7,715.6458,253.6843,709.9978,253.3678,710.3143,247.7198,706.27,256.7" style="stroke:#181818;stroke-width:1.0;"/><text fill="#000000" font-family="sans-serif" font-size="13" lengthAdjust="spacing" textLength="43.3228" x="755.97" y="223.0669">realiza</text><text fill="#000000" font-family="sans-serif" font-size="13" lengthAdjust="spacing" textLength="23.0356" x="686.882" y="246.0318">0..*</text></g><!--link ProfMedico to Especialidad--><g id="link_ProfMedico_Especialidad"><path codeLine="65" d="M299.58,162.72 C232.41,170.26 128.42,185.52 97.97,210 C83.57,221.58 77.2433,235.43 73.0233,250.96 " fill="none" id="ProfMedico-to-Especialidad" style="stroke:#181818;stroke-width:1.0;"/><polygon fill="#181818" points="71.45,256.75,77.67,249.1138,72.7611,251.925,69.95,247.016,71.45,256.75" style="stroke:#181818;stroke-width:1.0;"/><text fill="#000000" font-family="sans-serif" font-size="13" lengthAdjust="spacing" textLength="78.1714" x="98.97" y="223.0669">pertenece a</text><text fill="#000000" font-family="sans-serif" font-size="13" lengthAdjust="spacing" textLength="23.0356" x="75.3498" y="246.094">1..*</text></g><!--link ProfMedico to Cita--><g id="link_ProfMedico_Cita"><path codeLine="66" d="M351.82,180.33 C348.82,194.75 347.69,213.1 355.97,227 C357.95,230.32 390.4042,247.456 418.4642,261.886 " fill="none" id="ProfMedico-to-Cita" style="stroke:#181818;stroke-width:1.0;"/><polygon fill="#181818" points="423.8,264.63,417.6256,256.9569,419.3535,262.3434,413.967,264.0713,423.8,264.63" style="stroke:#181818;stroke-width:1.0;"/><text fill="#000000" font-family="sans-serif" font-size="13" lengthAdjust="spacing" textLength="55.8911" x="356.97" y="223.0669">gestiona</text><text fill="#000000" font-family="sans-serif" font-size="13" lengthAdjust="spacing" textLength="23.0356" x="393.121" y="257.3081">0..*</text></g><!--link ProfMedico to Diagnostico--><g id="link_ProfMedico_Diagnostico"><path codeLine="67" d="M299.56,178.4 C276.25,188.1 253.5,199.69 246.97,210 C236.15,227.09 221.21,229.03 256.97,305 C303.58,404.02 412.5022,470.3393 479.7822,503.9393 " fill="none" id="ProfMedico-to-Diagnostico" style="stroke:#181818;stroke-width:1.0;"/><polygon fill="#181818" points="485.15,506.62,478.8854,499.0203,480.6768,504.3861,475.3111,506.1775,485.15,506.62" style="stroke:#181818;stroke-width:1.0;"/><text fill="#000000" font-family="sans-serif" font-size="13" lengthAdjust="spacing" textLength="43.3228" x="283.97" y="348.0669">realiza</text><text fill="#000000" font-family="sans-serif" font-size="13" lengthAdjust="spacing" textLength="23.0356" x="448.3038" y="496.7277">0..*</text></g><!--link ProfMedico to Tratamiento--><g id="link_ProfMedico_Tratamiento"><path codeLine="68" d="M418.6,174.05 C442.44,182.57 469.31,194.43 490.97,210 C536.02,242.39 523.19,278.56 571.97,305 C663.38,354.54 711.72,287.05 803.97,335 C824.57,345.71 838.3977,360.9811 849.8077,376.9211 " fill="none" id="ProfMedico-to-Tratamiento" style="stroke:#181818;stroke-width:1.0;"/><polygon fill="#181818" points="853.3,381.8,851.3141,372.1534,850.3897,377.7343,844.8089,376.8099,853.3,381.8" style="stroke:#181818;stroke-width:1.0;"/><text fill="#000000" font-family="sans-serif" font-size="13" lengthAdjust="spacing" textLength="42.8086" x="572.97" y="285.5669">asigna</text></g><!--link ProfMedico to HistClinico--><g id="link_ProfMedico_HistClinico"><path codeLine="69" d="M299.38,175.58 C283.49,183.55 268.19,194.68 258.97,210 C248.2,227.9 258.1741,241.0282 277.3341,253.4382 " fill="none" id="ProfMedico-to-HistClinico" style="stroke:#181818;stroke-width:1.0;"/><polygon fill="#181818" points="282.37,256.7,276.9906,248.45,278.1734,253.9818,272.6416,255.1646,282.37,256.7" style="stroke:#181818;stroke-width:1.0;"/><text fill="#000000" font-family="sans-serif" font-size="13" lengthAdjust="spacing" textLength="55.0278" x="259.97" y="223.0669">consulta</text></g><!--link ProfMedico to Consulta--><g id="link_ProfMedico_Consulta"><path codeLine="70" d="M418.54,172.95 C452.24,182.54 494.91,195.65 531.97,210 C532.63,210.26 584.4968,234.8031 627.5968,255.2031 " fill="none" id="ProfMedico-to-Consulta" style="stroke:#181818;stroke-width:1.0;"/><polygon fill="#181818" points="633.02,257.77,626.5965,250.3042,628.5007,255.6309,623.1739,257.5351,633.02,257.77" style="stroke:#181818;stroke-width:1.0;"/><text fill="#000000" font-family="sans-serif" font-size="13" lengthAdjust="spacing" textLength="78.4316" x="564.97" y="223.0669">lleva a cabo</text></g><!--link Tratamiento to Diagnostico--><g id="link_Tratamiento_Diagnostico"><path codeLine="72" d="M808.79,428.99 C748.17,451.52 660.1745,484.2206 600.1445,506.5206 " fill="none" id="Tratamiento-to-Diagnostico" style="stroke:#181818;stroke-width:1.0;"/><polygon fill="#181818" points="594.52,508.61,604.3496,509.2256,599.207,506.8689,601.5638,501.7263,594.52,508.61" style="stroke:#181818;stroke-width:1.0;"/><text fill="#000000" font-family="sans-serif" font-size="13" lengthAdjust="spacing" textLength="70.2305" x="722.97" y="473.0669">se basa en</text></g><!--link Tratamiento to RecursoMedico--><g id="link_Tratamiento_RecursoMedico"><path codeLine="73" d="M927.42,421.71 C1019.15,444.42 1189.0257,486.4587 1287.5857,510.8487 " fill="none" id="Tratamiento-to-RecursoMedico" style="stroke:#181818;stroke-width:1.0;"/><polygon fill="#181818" points="1293.41,512.29,1285.6344,506.2452,1288.5564,511.0889,1283.7127,514.0109,1293.41,512.29" style="stroke:#181818;stroke-width:1.0;"/><text fill="#000000" font-family="sans-serif" font-size="13" lengthAdjust="spacing" textLength="38.9619" x="1146.97" y="473.0669">utiliza</text><text fill="#000000" font-family="sans-serif" font-size="13" lengthAdjust="spacing" textLength="23.0356" x="1262.4956" y="506.8651">0..*</text></g><!--link HistClinico to Diagnostico--><g id="link_HistClinico_Diagnostico"><path codeLine="74" d="M341.81,305.47 C355.38,336.15 381.94,390.6 414.97,430 C440.3,460.22 470.8498,484.6135 496.9998,503.2035 " fill="none" id="HistClinico-to-Diagnostico" style="stroke:#181818;stroke-width:1.0;"/><polygon fill="#181818" points="501.89,506.68,496.8723,498.2052,497.8148,503.783,492.237,504.7255,501.89,506.68" style="stroke:#181818;stroke-width:1.0;"/><text fill="#000000" font-family="sans-serif" font-size="13" lengthAdjust="spacing" textLength="46.541" x="415.97" y="410.5669">incluye</text><text fill="#000000" font-family="sans-serif" font-size="13" lengthAdjust="spacing" textLength="23.0356" x="496.148" y="496.007">0..*</text></g><!--link Cita to Diagnostico--><g id="link_Cita_Diagnostico"><path codeLine="76" d="M456.85,305.35 C460.96,334.98 469.74,387.35 484.97,430 C494.77,457.46 507.7277,481.6644 519.3977,501.4144 " fill="none" id="Cita-to-Diagnostico" style="stroke:#181818;stroke-width:1.0;"/><polygon fill="#181818" points="522.45,506.58,521.3153,496.7967,519.9064,502.2753,514.4278,500.8664,522.45,506.58" style="stroke:#181818;stroke-width:1.0;"/><text fill="#000000" font-family="sans-serif" font-size="13" lengthAdjust="spacing" textLength="103.1812" x="485.97" y="410.5669">puede derivar a</text></g><!--link Cita to Tratamiento--><g id="link_Cita_Tratamiento"><path codeLine="77" d="M484.07,295.35 C492.65,298.82 502.08,302.33 510.97,305 C575.25,324.3 595.27,313.85 658.97,335 C675.76,340.58 678.47,345.61 694.97,352 C732.17,366.4 769.2692,377.9073 803.0292,387.5173 " fill="none" id="Cita-to-Tratamiento" style="stroke:#181818;stroke-width:1.0;"/><polygon fill="#181818" points="808.8,389.16,801.239,382.8488,803.991,387.7911,799.0487,390.5431,808.8,389.16" style="stroke:#181818;stroke-width:1.0;"/><text fill="#000000" font-family="sans-serif" font-size="13" lengthAdjust="spacing" textLength="103.1812" x="695.97" y="348.0669">puede derivar a</text></g><!--link Urgencias to Diagnostico--><g id="link_Urgencias_Diagnostico"><path codeLine="78" d="M1185.89,180.39 C1192.35,189.07 1198.64,199.4 1201.97,210 C1204.24,217.21 1202.91,219.5 1201.97,227 C1197.49,262.51 1200.17,274.19 1181.97,305 C1166.45,331.26 1157.57,335.42 1131.97,352 C956.64,465.58 711.83,508.4273 600.25,522.9173 " fill="none" id="Urgencias-to-Diagnostico" style="stroke:#181818;stroke-width:1.0;"/><polygon fill="#181818" points="594.3,523.69,603.7402,526.4977,599.2584,523.0461,602.7099,518.5643,594.3,523.69" style="stroke:#181818;stroke-width:1.0;"/><text fill="#000000" font-family="sans-serif" font-size="13" lengthAdjust="spacing" textLength="45.7983" x="1157.97" y="348.0669">genera</text></g><!--link Urgencias to Tratamiento--><g id="link_Urgencias_Tratamiento"><path codeLine="79" d="M1113.81,163.67 C1077.91,170.45 1030.36,183.86 995.97,210 C936.1,255.5 945.54,289.34 903.97,352 C897.51,361.73 893.6815,367.4437 887.4115,376.6337 " fill="none" id="Urgencias-to-Tratamiento" style="stroke:#181818;stroke-width:1.0;"/><polygon fill="#181818" points="884.03,381.59,892.4065,376.4098,886.8479,377.4597,885.7981,371.9011,884.03,381.59" style="stroke:#181818;stroke-width:1.0;"/><text fill="#000000" font-family="sans-serif" font-size="13" lengthAdjust="spacing" textLength="69.5259" x="952.97" y="285.5669">administra</text></g><!--link Urgencias to Sala--><g id="link_Urgencias_Sala"><path codeLine="80" d="M1209.12,180.24 C1222.98,188.62 1237.82,198.81 1249.97,210 C1300.9,256.91 1311.48,273.33 1342.97,335 C1350.5,349.75 1354.5472,361.7639 1358.1872,375.7339 " fill="none" id="Urgencias-to-Sala" style="stroke:#181818;stroke-width:1.0;"/><polygon fill="#181818" points="1359.7,381.54,1361.3015,371.8222,1358.4393,376.7015,1353.56,373.8393,1359.7,381.54" style="stroke:#181818;stroke-width:1.0;"/><text fill="#000000" font-family="sans-serif" font-size="13" lengthAdjust="spacing" textLength="42.8086" x="1326.97" y="285.5669">asigna</text></g><!--link Urgencias to Ingreso--><g id="link_Urgencias_Ingreso"><path codeLine="81" d="M1127.3,180.35 C1117.55,188.44 1108.3,198.42 1102.97,210 C1096.12,224.87 1098.5688,237.2641 1105.1488,251.2041 " fill="none" id="Urgencias-to-Ingreso" style="stroke:#181818;stroke-width:1.0;"/><polygon fill="#181818" points="1107.71,256.63,1107.4855,246.7837,1105.5757,252.1084,1100.251,250.1986,1107.71,256.63" style="stroke:#181818;stroke-width:1.0;"/><text fill="#000000" font-family="sans-serif" font-size="13" lengthAdjust="spacing" textLength="93.1963" x="1103.97" y="223.0669">puede llevar a</text></g><!--link Ingreso to Sala--><g id="link_Ingreso_Sala"><path codeLine="83" d="M1164.3,304.77 C1190.33,318.65 1224.44,336.62 1254.97,352 C1281.28,365.26 1306.0296,377.1673 1328.1096,387.6473 " fill="none" id="Ingreso-to-Sala" style="stroke:#181818;stroke-width:1.0;"/><polygon fill="#181818" points="1333.53,390.22,1327.1145,382.7473,1329.013,388.0761,1323.6842,389.9745,1333.53,390.22" style="stroke:#181818;stroke-width:1.0;"/><text fill="#000000" font-family="sans-serif" font-size="13" lengthAdjust="spacing" textLength="82.5957" x="1255.97" y="348.0669">se realiza en</text></g><!--link Ingreso to Tratamiento--><g id="link_Ingreso_Tratamiento"><path codeLine="84" d="M1081.24,305.4 C1056.11,319.52 1023.04,337.51 992.97,352 C971.52,362.34 953.0771,370.459 931.8971,379.299 " fill="none" id="Ingreso-to-Tratamiento" style="stroke:#181818;stroke-width:1.0;"/><polygon fill="#181818" points="926.36,381.61,936.2063,381.8348,930.9742,379.6841,933.1249,374.4521,926.36,381.61" style="stroke:#181818;stroke-width:1.0;"/><text fill="#000000" font-family="sans-serif" font-size="13" lengthAdjust="spacing" textLength="97.0049" x="1025.97" y="348.0669">puede requerir</text></g><!--link Sala to RecursoMedico--><g id="link_Sala_RecursoMedico"><path codeLine="85" d="M1364.97,430.42 C1364.97,452.31 1364.97,478.8 1364.97,500.66 " fill="none" id="Sala-to-RecursoMedico" style="stroke:#181818;stroke-width:1.0;"/><polygon fill="#181818" points="1364.97,506.66,1368.97,497.66,1364.97,501.66,1360.97,497.66,1364.97,506.66" style="stroke:#181818;stroke-width:1.0;"/><text fill="#000000" font-family="sans-serif" font-size="13" lengthAdjust="spacing" textLength="56.2847" x="1365.97" y="473.0669">contiene</text></g><!--SRC=[VPJ1RjmW48RlFCN8nqfPjLSVSd4hjOT8LTiymAmziP1Os0AEb5Pze1vooYFiYtK0UnTit3qny37C_y-iINlfNw3fI7jhO23uZceQ6a07QI_6y5i0_yGV8MY-yHLxoMkAw1BKE6kU3l1m-Jl8tYIOTnueX1NyapjJBr790LCL-KRYS_opTFu0dRgywYLzsEgKrFNy7oME-lBc_8B73HFZ2lx3eiTJq9ReBAxGdVIOhED5vVpHZgHPZ8lGDThA-g97IouzEQ-t47SclHOMbTU-KJzPlfXxF-_jsjyPxIQrg9Y3ZCjdukxk7feFXyEx9czf2q_6dd0mS3PsZuyLj-3PIDfZYiQt87MlffTTkXJM0Wud7W7dBGfndSx4DyM8B5MKqFkODBQn1MUKx7bPPVBvQS5ooSTwidnqEASSfpgtzFk_XIsT2I-oHR-2obiFzbqya_MSj2V0pOL2yqWioUWzQgqwrR1YIyN8ahVvobRqiwurbUbLYfuH47ey6Y7o9m9OrkK8ZkWGI6_0MSTwR2OlevAyh5tPoqYAwDds-VD4_44ToCfdj6pu5IkDMMEtxy8s9P-GNIChds-JNsBpdsxkGtbs6xfKJNGv52EMaom3spftF3YR0pLXbdvEhCsAU3jGQzEvwt7K_m40]--></g></svg>