<svg xmlns="http://www.w3.org/2000/svg" xmlns:xlink="http://www.w3.org/1999/xlink" contentStyleType="text/css" height="667px" preserveAspectRatio="none" style="width:789px;height:667px;background:#FFFFFF;" version="1.1" viewBox="0 0 789 667" width="789px" zoomAndPan="magnify"><defs/><g><ellipse cx="278.26" cy="16" fill="#222222" rx="10" ry="10" style="stroke:#222222;stroke-width:1.0;"/><g id="Disponible"><rect fill="#F1F1F1" height="50" rx="12.5" ry="12.5" style="stroke:#181818;stroke-width:0.5;" width="93.5684" x="231.48" y="230"/><line style="stroke:#181818;stroke-width:0.5;" x1="231.48" x2="325.0484" y1="256.2969" y2="256.2969"/><text fill="#000000" font-family="sans-serif" font-size="14" lengthAdjust="spacing" textLength="73.5684" x="241.48" y="247.9951">Disponible</text></g><g id="Atendiendo_Paciente"><rect fill="#F1F1F1" height="50" rx="12.5" ry="12.5" style="stroke:#181818;stroke-width:0.5;" width="167.4648" x="194.53" y="357"/><line style="stroke:#181818;stroke-width:0.5;" x1="194.53" x2="361.9948" y1="383.2969" y2="383.2969"/><text fill="#000000" font-family="sans-serif" font-size="14" lengthAdjust="spacing" textLength="147.4648" x="204.53" y="374.9951">Atendiendo_Paciente</text></g><g id="En_guardia"><rect fill="#F1F1F1" height="50" rx="12.5" ry="12.5" style="stroke:#181818;stroke-width:0.5;" width="98.1689" x="13.18" y="484"/><line style="stroke:#181818;stroke-width:0.5;" x1="13.18" x2="111.3489" y1="510.2969" y2="510.2969"/><text fill="#000000" font-family="sans-serif" font-size="14" lengthAdjust="spacing" textLength="78.1689" x="23.18" y="501.9951">En_guardia</text></g><g id="Documentando"><rect fill="#F1F1F1" height="50" rx="12.5" ry="12.5" style="stroke:#181818;stroke-width:0.5;" width="127.4336" x="453.54" y="611"/><line style="stroke:#181818;stroke-width:0.5;" x1="453.54" x2="580.9736" y1="637.2969" y2="637.2969"/><text fill="#000000" font-family="sans-serif" font-size="14" lengthAdjust="spacing" textLength="107.4336" x="463.54" y="628.9951">Documentando</text></g><g id="En_emergencia"><rect fill="#F1F1F1" height="50" rx="12.5" ry="12.5" style="stroke:#181818;stroke-width:0.5;" width="127.8779" x="609.32" y="484"/><line style="stroke:#181818;stroke-width:0.5;" x1="609.32" x2="737.1979" y1="510.2969" y2="510.2969"/><text fill="#000000" font-family="sans-serif" font-size="14" lengthAdjust="spacing" textLength="107.8779" x="619.32" y="501.9951">En_emergencia</text></g><g id="En_descanso"><rect fill="#F1F1F1" height="50" rx="12.5" ry="12.5" style="stroke:#181818;stroke-width:0.5;" width="110.5215" x="7" y="611"/><line style="stroke:#181818;stroke-width:0.5;" x1="7" x2="117.5215" y1="637.2969" y2="637.2969"/><text fill="#000000" font-family="sans-serif" font-size="14" lengthAdjust="spacing" textLength="90.5215" x="17" y="628.9951">En_descanso</text></g><g id="Ausente"><rect fill="#F1F1F1" height="50" rx="12.5" ry="12.5" style="stroke:#181818;stroke-width:0.5;" width="77.333" x="302.59" y="103"/><line style="stroke:#181818;stroke-width:0.5;" x1="302.59" x2="379.923" y1="129.2969" y2="129.2969"/><text fill="#000000" font-family="sans-serif" font-size="14" lengthAdjust="spacing" textLength="57.333" x="312.59" y="120.9951">Ausente</text></g><!--link *start* to Disponible--><g id="link_*start*_Disponible"><path d="M278.26,26.29 C278.26,60.27 278.26,172.46 278.26,223.84 " fill="none" id="*start*-to-Disponible" style="stroke:#181818;stroke-width:1.0;"/><polygon fill="#181818" points="278.26,229.84,282.26,220.84,278.26,224.84,274.26,220.84,278.26,229.84" style="stroke:#181818;stroke-width:1.0;"/></g><!--link Disponible to Atendiendo_Paciente--><g id="link_Disponible_Atendiendo_Paciente"><path d="M278.26,280.4 C278.26,302.42 278.26,328.66 278.26,350.66 " fill="none" id="Disponible-to-Atendiendo_Paciente" style="stroke:#181818;stroke-width:1.0;"/><polygon fill="#181818" points="278.26,356.66,282.26,347.66,278.26,351.66,274.26,347.66,278.26,356.66" style="stroke:#181818;stroke-width:1.0;"/><text fill="#000000" font-family="sans-serif" font-size="13" lengthAdjust="spacing" textLength="109.8462" x="279.26" y="323.0669">Cita programada</text></g><!--link Disponible to En_guardia--><g id="link_Disponible_En_guardia"><path d="M231.23,274.23 C191.49,291.3 134.75,319.74 94.26,357 C62.88,385.88 53.56,396.16 41.26,437 C36.59,452.51 39.0962,464.4974 45.3962,478.2174 " fill="none" id="Disponible-to-En_guardia" style="stroke:#181818;stroke-width:1.0;"/><polygon fill="#181818" points="47.9,483.67,47.7794,473.8219,45.8135,479.1261,40.5093,477.1602,47.9,483.67" style="stroke:#181818;stroke-width:1.0;"/><text fill="#000000" font-family="sans-serif" font-size="13" lengthAdjust="spacing" textLength="81.3198" x="95.26" y="386.5669">Turno activo</text></g><!--link Atendiendo_Paciente to Documentando--><g id="link_Atendiendo_Paciente_Documentando"><path d="M296.75,407.31 C303.45,416.45 310.93,427.05 317.26,437 C343.75,478.63 338.11,497.46 371.26,534 C399.94,565.62 435.1373,589.5569 466.1673,607.6569 " fill="none" id="Atendiendo_Paciente-to-Documentando" style="stroke:#181818;stroke-width:1.0;"/><polygon fill="#181818" points="471.35,610.68,465.5913,602.6902,467.0311,608.1607,461.5605,609.6005,471.35,610.68" style="stroke:#181818;stroke-width:1.0;"/><text fill="#000000" font-family="sans-serif" font-size="13" lengthAdjust="spacing" textLength="118.5806" x="372.26" y="513.5669">Registrar consulta</text></g><!--link Atendiendo_Paciente to En_emergencia--><g id="link_Atendiendo_Paciente_En_emergencia"><path d="M362.14,382.11 C465.9,383.01 633.73,391.69 673.26,437 C684.2,449.54 684.7648,462.7141 681.7548,477.9241 " fill="none" id="Atendiendo_Paciente-to-En_emergencia" style="stroke:#181818;stroke-width:1.0;"/><polygon fill="#181818" points="680.59,483.81,686.2611,475.7577,681.5607,478.9051,678.4133,474.2047,680.59,483.81" style="stroke:#181818;stroke-width:1.0;"/><text fill="#000000" font-family="sans-serif" font-size="13" lengthAdjust="spacing" textLength="99.9438" x="681.26" y="450.0669">Paciente cr&#237;tico</text></g><!--link En_emergencia to Documentando--><g id="link_En_emergencia_Documentando"><path d="M642.81,534.4 C615.32,556.42 579.7832,584.9093 552.3132,606.9093 " fill="none" id="En_emergencia-to-Documentando" style="stroke:#181818;stroke-width:1.0;"/><polygon fill="#181818" points="547.63,610.66,557.1553,608.1561,551.5327,607.5344,552.1544,601.9119,547.63,610.66" style="stroke:#181818;stroke-width:1.0;"/><text fill="#000000" font-family="sans-serif" font-size="13" lengthAdjust="spacing" textLength="128.5273" x="605.26" y="577.0669">Resoluci&#243;n del caso</text></g><!--link Documentando to Disponible--><g id="link_Documentando_Disponible"><path d="M516.45,610.56 C514.82,580.15 509.93,527 495.26,484 C466.6,400 462.69,369.97 397.26,310 C376.94,291.37 354.7362,280.3175 331.0962,271.6875 " fill="none" id="Documentando-to-Disponible" style="stroke:#181818;stroke-width:1.0;"/><polygon fill="#181818" points="325.46,269.63,332.5426,276.4738,330.1568,271.3446,335.286,268.9589,325.46,269.63" style="stroke:#181818;stroke-width:1.0;"/><text fill="#000000" font-family="sans-serif" font-size="13" lengthAdjust="spacing" textLength="153.9497" x="485.26" y="450.0669">Finaliza documentaci&#243;n</text></g><!--link En_guardia to Atendiendo_Paciente--><g id="link_En_guardia_Atendiendo_Paciente"><path d="M111.67,485.81 C131.18,476.57 153.59,465.36 173.26,454 C198.03,439.69 219.821,425.0741 240.101,410.7341 " fill="none" id="En_guardia-to-Atendiendo_Paciente" style="stroke:#181818;stroke-width:1.0;"/><polygon fill="#181818" points="245,407.27,235.3421,409.2001,240.9175,410.1567,239.9609,415.7321,245,407.27" style="stroke:#181818;stroke-width:1.0;"/><text fill="#000000" font-family="sans-serif" font-size="13" lengthAdjust="spacing" textLength="107.4404" x="201.26" y="450.0669">Llamada m&#233;dica</text></g><!--link Atendiendo_Paciente to En_guardia--><g id="link_Atendiendo_Paciente_En_guardia"><path d="M194.2,392.54 C138.51,400.79 72.63,414.93 55.26,437 C45.07,449.95 45.612,462.8703 50.162,477.8103 " fill="none" id="Atendiendo_Paciente-to-En_guardia" style="stroke:#181818;stroke-width:1.0;"/><polygon fill="#181818" points="51.91,483.55,53.1144,473.7751,50.4533,478.7669,45.4615,476.1058,51.91,483.55" style="stroke:#181818;stroke-width:1.0;"/><text fill="#000000" font-family="sans-serif" font-size="13" lengthAdjust="spacing" textLength="108.9131" x="56.26" y="450.0669">Cambio de turno</text></g><!--link En_guardia to En_descanso--><g id="link_En_guardia_En_descanso"><path d="M37.09,534.46 C29.91,543.05 23.02,553.25 19.26,564 C13.46,580.6 18.9944,592.9886 30.5244,606.1386 " fill="none" id="En_guardia-to-En_descanso" style="stroke:#181818;stroke-width:1.0;"/><polygon fill="#181818" points="34.48,610.65,31.5542,601.2458,31.1836,606.8905,25.5389,606.52,34.48,610.65" style="stroke:#181818;stroke-width:1.0;"/><text fill="#000000" font-family="sans-serif" font-size="13" lengthAdjust="spacing" textLength="38.7842" x="20.26" y="577.0669">Pausa</text></g><!--link En_descanso to En_guardia--><g id="link_En_descanso_En_guardia"><path d="M62.81,610.54 C62.99,601.29 63.17,590.66 63.26,581 C63.4,565.47 63.2825,554.0287 63.0025,540.3187 " fill="none" id="En_descanso-to-En_guardia" style="stroke:#181818;stroke-width:1.0;"/><polygon fill="#181818" points="62.88,534.32,59.0646,543.3998,62.9821,539.319,67.0629,543.2364,62.88,534.32" style="stroke:#181818;stroke-width:1.0;"/><text fill="#000000" font-family="sans-serif" font-size="13" lengthAdjust="spacing" textLength="108.5576" x="65.26" y="577.0669">Fin del descanso</text></g><!--link *start* to Ausente--><g id="link_*start*_Ausente"><path d="M283,25.27 C292.32,41.56 310.4193,73.1428 324.4893,97.7228 " fill="none" id="*start*-to-Ausente" style="stroke:#181818;stroke-width:1.0;"/><polygon fill="#181818" points="327.47,102.93,326.4704,93.132,324.9861,98.5906,319.5274,97.1063,327.47,102.93" style="stroke:#181818;stroke-width:1.0;"/><text fill="#000000" font-family="sans-serif" font-size="13" lengthAdjust="spacing" textLength="88.3657" x="311.26" y="69.0669">No disponible</text></g><!--link Ausente to Disponible--><g id="link_Ausente_Disponible"><path d="M328.96,153.4 C317.86,175.42 304.3208,202.3022 293.2308,224.3022 " fill="none" id="Ausente-to-Disponible" style="stroke:#181818;stroke-width:1.0;"/><polygon fill="#181818" points="290.53,229.66,298.153,223.4239,292.7807,225.1952,291.0094,219.8228,290.53,229.66" style="stroke:#181818;stroke-width:1.0;"/><text fill="#000000" font-family="sans-serif" font-size="13" lengthAdjust="spacing" textLength="108.0688" x="315.26" y="196.0669">Regreso al turno</text></g><!--SRC=[VL9BQWCn3Dtx55eNSe4i2Y5jLgMKqbqeGP7D8B2ju4yNlL4NNVK8Sx4gJYRJoQSBWoozfy-JrdVlC9lTmmFddKJUUcT6iqKMnKNB-cJpWgH6SJ279HU4NP8kOK2BvwJ7kEag9ikesBUQeW1IuGynrzAr1eHgq1zgH3clhkDS4YOWYRdwWZUPMii5bpeNgPKx1IdrtuL9p1HnjLeMNudxdmZMUI3COYQOgKPAMN54pvy8Te0rklap-MtrddnJ3KB_PPdmdAHVwp9XpDBcgRb1JhuBXRMPrlU0-4-haRN4i6LH4fJzXipwU0kBcezzFcjqF8p1Vw65BYkfWe3-aEaN]--></g></svg>