<svg xmlns="http://www.w3.org/2000/svg" xmlns:xlink="http://www.w3.org/1999/xlink" contentStyleType="text/css" height="554px" preserveAspectRatio="none" style="width:233px;height:554px;background:#FFFFFF;" version="1.1" viewBox="0 0 233 554" width="233px" zoomAndPan="magnify"><defs/><g><ellipse cx="116.74" cy="16" fill="#222222" rx="10" ry="10" style="stroke:#222222;stroke-width:1.0;"/><g id="Solicitada"><rect fill="#F1F1F1" height="50" rx="12.5" ry="12.5" style="stroke:#181818;stroke-width:0.5;" width="88.3525" x="72.56" y="86"/><line style="stroke:#181818;stroke-width:0.5;" x1="72.56" x2="160.9125" y1="112.2969" y2="112.2969"/><text fill="#000000" font-family="sans-serif" font-size="14" lengthAdjust="spacing" textLength="68.3525" x="82.56" y="103.9951">Solicitada</text></g><g id="Confirmada"><rect fill="#F1F1F1" height="50" rx="12.5" ry="12.5" style="stroke:#181818;stroke-width:0.5;" width="101.4707" x="66" y="196"/><line style="stroke:#181818;stroke-width:0.5;" x1="66" x2="167.4707" y1="222.2969" y2="222.2969"/><text fill="#000000" font-family="sans-serif" font-size="14" lengthAdjust="spacing" textLength="81.4707" x="76" y="213.9951">Confirmada</text></g><g id="Cancelada"><rect fill="#F1F1F1" height="50" rx="12.5" ry="12.5" style="stroke:#181818;stroke-width:0.5;" width="93.4727" x="7" y="416"/><line style="stroke:#181818;stroke-width:0.5;" x1="7" x2="100.4727" y1="442.2969" y2="442.2969"/><text fill="#000000" font-family="sans-serif" font-size="14" lengthAdjust="spacing" textLength="73.4727" x="17" y="433.9951">Cancelada</text></g><g id="En_proceso"><rect fill="#F1F1F1" height="50" rx="12.5" ry="12.5" style="stroke:#181818;stroke-width:0.5;" width="100.0967" x="124.69" y="306"/><line style="stroke:#181818;stroke-width:0.5;" x1="124.69" x2="224.7867" y1="332.2969" y2="332.2969"/><text fill="#000000" font-family="sans-serif" font-size="14" lengthAdjust="spacing" textLength="80.0967" x="134.69" y="323.9951">En_proceso</text></g><g id="Finalizada"><rect fill="#F1F1F1" height="50" rx="12.5" ry="12.5" style="stroke:#181818;stroke-width:0.5;" width="90.5674" x="135.45" y="416"/><line style="stroke:#181818;stroke-width:0.5;" x1="135.45" x2="226.0174" y1="442.2969" y2="442.2969"/><text fill="#000000" font-family="sans-serif" font-size="14" lengthAdjust="spacing" textLength="70.5674" x="145.45" y="433.9951">Finalizada</text></g><ellipse cx="116.74" cy="537" fill="none" rx="11" ry="11" style="stroke:#222222;stroke-width:1.0;"/><ellipse cx="116.74" cy="537" fill="#222222" rx="6" ry="6" style="stroke:#222222;stroke-width:1.0;"/><!--link *start* to Solicitada--><g id="link_*start*_Solicitada"><path d="M116.74,26.26 C116.74,39.95 116.74,60.07 116.74,79.52 " fill="none" id="*start*-to-Solicitada" style="stroke:#181818;stroke-width:1.0;"/><polygon fill="#181818" points="116.74,85.52,120.74,76.52,116.74,80.52,112.74,76.52,116.74,85.52" style="stroke:#181818;stroke-width:1.0;"/></g><!--link Solicitada to Confirmada--><g id="link_Solicitada_Confirmada"><path d="M116.74,136.24 C116.74,154.02 116.74,172.08 116.74,189.84 " fill="none" id="Solicitada-to-Confirmada" style="stroke:#181818;stroke-width:1.0;"/><polygon fill="#181818" points="116.74,195.84,120.74,186.84,116.74,190.84,112.74,186.84,116.74,195.84" style="stroke:#181818;stroke-width:1.0;"/></g><!--link Confirmada to Cancelada--><g id="link_Confirmada_Cancelada"><path d="M109.75,246.16 C97.64,288.07 74.5455,367.9858 62.4155,409.9658 " fill="none" id="Confirmada-to-Cancelada" style="stroke:#181818;stroke-width:1.0;"/><polygon fill="#181818" points="60.75,415.73,67.0911,408.1941,62.138,410.9265,59.4055,405.9733,60.75,415.73" style="stroke:#181818;stroke-width:1.0;"/></g><!--link Confirmada to En_proceso--><g id="link_Confirmada_En_proceso"><path d="M129.75,246.24 C139.3,264.02 149.3807,282.7943 158.9207,300.5543 " fill="none" id="Confirmada-to-En_proceso" style="stroke:#181818;stroke-width:1.0;"/><polygon fill="#181818" points="161.76,305.84,161.0249,296.0186,159.3939,301.4353,153.9773,299.8043,161.76,305.84" style="stroke:#181818;stroke-width:1.0;"/></g><!--link En_proceso to Finalizada--><g id="link_En_proceso_Finalizada"><path d="M176.08,356.24 C177.07,374.02 178.0794,392.0891 179.0594,409.8491 " fill="none" id="En_proceso-to-Finalizada" style="stroke:#181818;stroke-width:1.0;"/><polygon fill="#181818" points="179.39,415.84,182.8881,406.6333,179.1145,410.8476,174.9002,407.0741,179.39,415.84" style="stroke:#181818;stroke-width:1.0;"/></g><!--link Finalizada to *end*--><g id="link_Finalizada_*end*"><path d="M164.25,466.21 C150.63,486.23 135.4179,508.5612 126.0379,522.3312 " fill="none" id="Finalizada-to-*end*" style="stroke:#181818;stroke-width:1.0;"/><polygon fill="#181818" points="122.66,527.29,131.0327,522.1037,125.4749,523.1577,124.421,517.5999,122.66,527.29" style="stroke:#181818;stroke-width:1.0;"/></g><!--link Cancelada to *end*--><g id="link_Cancelada_*end*"><path d="M69.96,466.21 C83.38,486.23 98.3293,508.5361 107.5593,522.3061 " fill="none" id="Cancelada-to-*end*" style="stroke:#181818;stroke-width:1.0;"/><polygon fill="#181818" points="110.9,527.29,109.2115,517.587,108.1161,523.1367,102.5663,522.0412,110.9,527.29" style="stroke:#181818;stroke-width:1.0;"/></g><!--SRC=[YzQALT3LjLC8pi_9JCuiIKn9v48mmJBE-NbfcKMv81a44oAJc9USceD5mZKllg0eFpcrE9yBmGJBk6Nc9UPaLe7q89XWcMYjM2wuWJ0H0000]--></g></svg>