<svg xmlns="http://www.w3.org/2000/svg" xmlns:xlink="http://www.w3.org/1999/xlink" contentStyleType="text/css" height="624px" preserveAspectRatio="none" style="width:595px;height:624px;background:#FFFFFF;" version="1.1" viewBox="0 0 595 624" width="595px" zoomAndPan="magnify"><defs/><g><ellipse cx="297.98" cy="16" fill="#222222" rx="10" ry="10" style="stroke:#222222;stroke-width:1.0;"/><g id="Asignado"><rect fill="#F1F1F1" height="50" rx="12.5" ry="12.5" style="stroke:#181818;stroke-width:0.5;" width="84.5518" x="255.71" y="87"/><line style="stroke:#181818;stroke-width:0.5;" x1="255.71" x2="340.2618" y1="113.2969" y2="113.2969"/><text fill="#000000" font-family="sans-serif" font-size="14" lengthAdjust="spacing" textLength="64.5518" x="265.71" y="104.9951">Asignado</text></g><g id="En_progreso"><rect fill="#F1F1F1" height="50" rx="12.5" ry="12.5" style="stroke:#181818;stroke-width:0.5;" width="107.042" x="244.46" y="198"/><line style="stroke:#181818;stroke-width:0.5;" x1="244.46" x2="351.502" y1="224.2969" y2="224.2969"/><text fill="#000000" font-family="sans-serif" font-size="14" lengthAdjust="spacing" textLength="87.042" x="254.46" y="215.9951">En_progreso</text></g><g id="Suspendido"><rect fill="#F1F1F1" height="50" rx="12.5" ry="12.5" style="stroke:#181818;stroke-width:0.5;" width="101.6553" x="132.16" y="325"/><line style="stroke:#181818;stroke-width:0.5;" x1="132.16" x2="233.8153" y1="351.2969" y2="351.2969"/><text fill="#000000" font-family="sans-serif" font-size="14" lengthAdjust="spacing" textLength="81.6553" x="142.16" y="342.9951">Suspendido</text></g><g id="Modificado"><rect fill="#F1F1F1" height="50" rx="12.5" ry="12.5" style="stroke:#181818;stroke-width:0.5;" width="95.9678" x="311" y="325"/><line style="stroke:#181818;stroke-width:0.5;" x1="311" x2="406.9678" y1="351.2969" y2="351.2969"/><text fill="#000000" font-family="sans-serif" font-size="14" lengthAdjust="spacing" textLength="75.9678" x="321" y="342.9951">Modificado</text></g><g id="Finalizado"><rect fill="#F1F1F1" height="50" rx="12.5" ry="12.5" style="stroke:#181818;stroke-width:0.5;" width="90.5537" x="416.71" y="405"/><line style="stroke:#181818;stroke-width:0.5;" x1="416.71" x2="507.2637" y1="431.2969" y2="431.2969"/><text fill="#000000" font-family="sans-serif" font-size="14" lengthAdjust="spacing" textLength="70.5537" x="426.71" y="422.9951">Finalizado</text></g><g id="Cancelado"><rect fill="#F1F1F1" height="50" rx="12.5" ry="12.5" style="stroke:#181818;stroke-width:0.5;" width="93.459" x="245.25" y="485"/><line style="stroke:#181818;stroke-width:0.5;" x1="245.25" x2="338.709" y1="511.2969" y2="511.2969"/><text fill="#000000" font-family="sans-serif" font-size="14" lengthAdjust="spacing" textLength="73.459" x="255.25" y="502.9951">Cancelado</text></g><ellipse cx="356.98" cy="607" fill="none" rx="11" ry="11" style="stroke:#222222;stroke-width:1.0;"/><ellipse cx="356.98" cy="607" fill="#222222" rx="6" ry="6" style="stroke:#222222;stroke-width:1.0;"/><!--link *start* to Asignado--><g id="link_*start*_Asignado"><path d="M297.98,26.36 C297.98,40.29 297.98,60.95 297.98,80.65 " fill="none" id="*start*-to-Asignado" style="stroke:#181818;stroke-width:1.0;"/><polygon fill="#181818" points="297.98,86.65,301.98,77.65,297.98,81.65,293.98,77.65,297.98,86.65" style="stroke:#181818;stroke-width:1.0;"/></g><!--link Asignado to En_progreso--><g id="link_Asignado_En_progreso"><path d="M297.98,137.46 C297.98,155.41 297.98,173.69 297.98,191.62 " fill="none" id="Asignado-to-En_progreso" style="stroke:#181818;stroke-width:1.0;"/><polygon fill="#181818" points="297.98,197.62,301.98,188.62,297.98,192.62,293.98,188.62,297.98,197.62" style="stroke:#181818;stroke-width:1.0;"/></g><!--link En_progreso to Suspendido--><g id="link_En_progreso_Suspendido"><path d="M244.19,227.29 C175.31,232.75 61.73,246.41 35.98,278 C6,314.8 72.2591,332.8692 125.7491,341.6392 " fill="none" id="En_progreso-to-Suspendido" style="stroke:#181818;stroke-width:1.0;"/><polygon fill="#181818" points="131.67,342.61,123.4358,337.2065,126.7359,341.801,122.1414,345.1011,131.67,342.61" style="stroke:#181818;stroke-width:1.0;"/><text fill="#000000" font-family="sans-serif" font-size="13" lengthAdjust="spacing" textLength="102.0068" x="36.98" y="291.0669">Complicaciones</text></g><!--link Suspendido to En_progreso--><g id="link_Suspendido_En_progreso"><path d="M187.22,324.57 C190.77,309.82 197.08,291.36 207.98,278 C217.78,266 225.8488,259.1132 239.1288,251.1232 " fill="none" id="Suspendido-to-En_progreso" style="stroke:#181818;stroke-width:1.0;"/><polygon fill="#181818" points="244.27,248.03,234.496,249.2424,239.9857,250.6077,238.6204,256.0973,244.27,248.03" style="stroke:#181818;stroke-width:1.0;"/><text fill="#000000" font-family="sans-serif" font-size="13" lengthAdjust="spacing" textLength="73.8994" x="208.98" y="291.0669">Reanudado</text></g><!--link En_progreso to Modificado--><g id="link_En_progreso_Modificado"><path d="M291.55,248.43 C289.09,262.65 288.28,280.57 294.98,295 C300.38,306.6 305.0007,312.7809 314.8207,320.9209 " fill="none" id="En_progreso-to-Modificado" style="stroke:#181818;stroke-width:1.0;"/><polygon fill="#181818" points="319.44,324.75,315.0637,315.9268,315.5906,321.5591,309.9583,322.086,319.44,324.75" style="stroke:#181818;stroke-width:1.0;"/><text fill="#000000" font-family="sans-serif" font-size="13" lengthAdjust="spacing" textLength="121.3228" x="295.98" y="291.0669">Ajustes necesarios</text></g><!--link Modificado to En_progreso--><g id="link_Modificado_En_progreso"><path d="M402.18,324.51 C419.44,311.45 432.91,294.68 421.98,278 C406.35,254.14 383.3843,242.4251 357.5243,234.9551 " fill="none" id="Modificado-to-En_progreso" style="stroke:#181818;stroke-width:1.0;"/><polygon fill="#181818" points="351.76,233.29,359.2964,239.6305,356.5636,234.6776,361.5166,231.9448,351.76,233.29" style="stroke:#181818;stroke-width:1.0;"/></g><!--link En_progreso to Finalizado--><g id="link_En_progreso_Finalizado"><path d="M351.92,228.84 C385.3,234.84 426.04,248.23 448.98,278 C477.25,314.68 473.8124,366.386 468.2624,398.806 " fill="none" id="En_progreso-to-Finalizado" style="stroke:#181818;stroke-width:1.0;"/><polygon fill="#181818" points="467.25,404.72,472.7113,396.524,468.0937,399.7917,464.826,395.1741,467.25,404.72" style="stroke:#181818;stroke-width:1.0;"/><text fill="#000000" font-family="sans-serif" font-size="13" lengthAdjust="spacing" textLength="128.0449" x="458.98" y="291.0669">Concluido con &#233;xito</text></g><!--link Suspendido to Cancelado--><g id="link_Suspendido_Cancelado"><path d="M199.78,375.34 C220.26,405.03 251.2728,449.9913 271.7628,479.6913 " fill="none" id="Suspendido-to-Cancelado" style="stroke:#181818;stroke-width:1.0;"/><polygon fill="#181818" points="275.17,484.63,273.3517,474.9505,272.3307,480.5144,266.7667,479.4934,275.17,484.63" style="stroke:#181818;stroke-width:1.0;"/><text fill="#000000" font-family="sans-serif" font-size="13" lengthAdjust="spacing" textLength="107.1167" x="254.98" y="434.5669">Decisi&#243;n m&#233;dica</text></g><!--link Finalizado to *end*--><g id="link_Finalizado_*end*"><path d="M447.38,455.33 C423.72,494.78 381.1373,565.7452 365.4873,591.8252 " fill="none" id="Finalizado-to-*end*" style="stroke:#181818;stroke-width:1.0;"/><polygon fill="#181818" points="362.4,596.97,370.4608,591.311,364.9727,592.6827,363.601,587.1946,362.4,596.97" style="stroke:#181818;stroke-width:1.0;"/></g><!--link Cancelado to *end*--><g id="link_Cancelado_*end*"><path d="M308.72,535.46 C322.72,555.92 338.4623,578.9279 347.8823,592.6979 " fill="none" id="Cancelado-to-*end*" style="stroke:#181818;stroke-width:1.0;"/><polygon fill="#181818" points="351.27,597.65,349.4898,587.9634,348.4469,593.5232,342.887,592.4803,351.27,597.65" style="stroke:#181818;stroke-width:1.0;"/></g><!--SRC=[POz13e9034NtSufPat015oO4TUT6buIOoKmbDT0IoYJ66x7s25pC0J5EODVql_x_MoIbJjEzpWGhCexLRvYtHxgr7LST2AjedhMhbnR8OK1tEkUchT4QYqmW6_RC3kz1djdiuQK7qGGMn7J8M_w4P6fycSMRREsd7Ckan-69FQl8SLqqAhQIWja537atFRh2SaCMwc_Y0ImAZc_IpJYuaAAYGXDS9ANw7ooR3m00]--></g></svg>