<svg xmlns="http://www.w3.org/2000/svg" xmlns:xlink="http://www.w3.org/1999/xlink" contentStyleType="text/css" height="664px" preserveAspectRatio="none" style="width:354px;height:664px;background:#FFFFFF;" version="1.1" viewBox="0 0 354 664" width="354px" zoomAndPan="magnify"><defs/><g><ellipse cx="158.57" cy="16" fill="#222222" rx="10" ry="10" style="stroke:#222222;stroke-width:1.0;"/><g id="Alta"><rect fill="#F1F1F1" height="50" rx="12.5" ry="12.5" style="stroke:#181818;stroke-width:0.5;" width="50" x="176.57" y="86"/><line style="stroke:#181818;stroke-width:0.5;" x1="176.57" x2="226.57" y1="112.2969" y2="112.2969"/><text fill="#000000" font-family="sans-serif" font-size="14" lengthAdjust="spacing" textLength="27.5352" x="187.8024" y="103.9951">Alta</text></g><g id="Enfermo"><rect fill="#F1F1F1" height="50" rx="12.5" ry="12.5" style="stroke:#181818;stroke-width:0.5;" width="79.2197" x="72.96" y="196"/><line style="stroke:#181818;stroke-width:0.5;" x1="72.96" x2="152.1797" y1="222.2969" y2="222.2969"/><text fill="#000000" font-family="sans-serif" font-size="14" lengthAdjust="spacing" textLength="59.2197" x="82.96" y="213.9951">Enfermo</text></g><g id="Citado"><rect fill="#F1F1F1" height="50" rx="12.5" ry="12.5" style="stroke:#181818;stroke-width:0.5;" width="65.1855" x="130.98" y="306"/><line style="stroke:#181818;stroke-width:0.5;" x1="130.98" x2="196.1655" y1="332.2969" y2="332.2969"/><text fill="#000000" font-family="sans-serif" font-size="14" lengthAdjust="spacing" textLength="45.1855" x="140.98" y="323.9951">Citado</text></g><ellipse cx="288.57" cy="647" fill="none" rx="11" ry="11" style="stroke:#222222;stroke-width:1.0;"/><ellipse cx="288.57" cy="647" fill="#222222" rx="6" ry="6" style="stroke:#222222;stroke-width:1.0;"/><g id="No_citado"><rect fill="#F1F1F1" height="50" rx="12.5" ry="12.5" style="stroke:#181818;stroke-width:0.5;" width="89.1455" x="7" y="416"/><line style="stroke:#181818;stroke-width:0.5;" x1="7" x2="96.1455" y1="442.2969" y2="442.2969"/><text fill="#000000" font-family="sans-serif" font-size="14" lengthAdjust="spacing" textLength="69.1455" x="17" y="433.9951">No_citado</text></g><g id="En_espera"><rect fill="#F1F1F1" height="50" rx="12.5" ry="12.5" style="stroke:#181818;stroke-width:0.5;" width="92.4609" x="131.34" y="416"/><line style="stroke:#181818;stroke-width:0.5;" x1="131.34" x2="223.8009" y1="442.2969" y2="442.2969"/><text fill="#000000" font-family="sans-serif" font-size="14" lengthAdjust="spacing" textLength="72.4609" x="141.34" y="433.9951">En_espera</text></g><g id="En_tratamiento"><rect fill="#F1F1F1" height="50" rx="12.5" ry="12.5" style="stroke:#181818;stroke-width:0.5;" width="127.6797" x="166.73" y="526"/><line style="stroke:#181818;stroke-width:0.5;" x1="166.73" x2="294.4097" y1="552.2969" y2="552.2969"/><text fill="#000000" font-family="sans-serif" font-size="14" lengthAdjust="spacing" textLength="107.6797" x="176.73" y="543.9951">En_tratamiento</text></g><!--link *start* to Alta--><g id="link_*start*_Alta"><path d="M162.54,25.58 C168.78,39.07 178.5911,60.2943 187.7311,80.0543 " fill="none" id="*start*-to-Alta" style="stroke:#181818;stroke-width:1.0;"/><polygon fill="#181818" points="190.25,85.5,190.1021,75.6523,188.1509,80.962,182.8412,79.0108,190.25,85.5" style="stroke:#181818;stroke-width:1.0;"/></g><!--link Alta to Enfermo--><g id="link_Alta_Enfermo"><path d="M176.12,130.81 C157.87,148.82 138.4881,171.1214 125.1081,190.7614 " fill="none" id="Alta-to-Enfermo" style="stroke:#181818;stroke-width:1.0;"/><polygon fill="#181818" points="121.73,195.72,130.103,190.5341,124.5451,191.5878,123.4914,186.0299,121.73,195.72" style="stroke:#181818;stroke-width:1.0;"/></g><!--link Enfermo to Alta--><g id="link_Enfermo_Alta"><path d="M143.95,195.84 C161.29,178.08 177.7712,158.9985 189.7312,141.2185 " fill="none" id="Enfermo-to-Alta" style="stroke:#181818;stroke-width:1.0;"/><polygon fill="#181818" points="193.08,136.24,184.7377,141.4751,190.2893,140.3887,191.3757,145.9403,193.08,136.24" style="stroke:#181818;stroke-width:1.0;"/></g><!--link Alta to Citado--><g id="link_Alta_Citado"><path d="M197.36,136.16 C190.06,178.07 176.1507,257.8392 168.8307,299.8192 " fill="none" id="Alta-to-Citado" style="stroke:#181818;stroke-width:1.0;"/><polygon fill="#181818" points="167.8,305.73,173.2865,297.5509,168.6589,300.8043,165.4054,296.1767,167.8,305.73" style="stroke:#181818;stroke-width:1.0;"/></g><!--link Alta to *end*--><g id="link_Alta_*end*"><path d="M227,131.85 C268.83,166.94 347.57,244.36 347.57,330 C347.57,330 347.57,330 347.57,442 C347.57,520.16 309.768,603.3909 295.858,631.5409 " fill="none" id="Alta-to-*end*" style="stroke:#181818;stroke-width:1.0;"/><polygon fill="#181818" points="293.2,636.92,300.7731,630.6233,295.415,632.4374,293.601,627.0793,293.2,636.92" style="stroke:#181818;stroke-width:1.0;"/></g><!--link *start* to Enfermo--><g id="link_*start*_Enfermo"><path d="M156.48,26.25 C149.71,56.11 129.6152,144.7682 119.4152,189.8082 " fill="none" id="*start*-to-Enfermo" style="stroke:#181818;stroke-width:1.0;"/><polygon fill="#181818" points="118.09,195.66,123.9791,187.7658,119.1944,190.7835,116.1766,185.9988,118.09,195.66" style="stroke:#181818;stroke-width:1.0;"/></g><!--link Enfermo to No_citado--><g id="link_Enfermo_No_citado"><path d="M105.81,246.16 C94.09,288.07 71.7272,367.9721 59.9772,409.9521 " fill="none" id="Enfermo-to-No_citado" style="stroke:#181818;stroke-width:1.0;"/><polygon fill="#181818" points="58.36,415.73,64.6378,408.1412,59.7077,410.915,56.9339,405.9849,58.36,415.73" style="stroke:#181818;stroke-width:1.0;"/></g><!--link Enfermo to Citado--><g id="link_Enfermo_Citado"><path d="M124.02,246.24 C132.42,264.02 141.2171,282.6549 149.6071,300.4149 " fill="none" id="Enfermo-to-Citado" style="stroke:#181818;stroke-width:1.0;"/><polygon fill="#181818" points="152.17,305.84,151.9424,295.9938,150.0343,301.3191,144.709,299.4109,152.17,305.84" style="stroke:#181818;stroke-width:1.0;"/></g><!--link Citado to Citado--><g id="link_Citado_Citado"><path d="M196.61,311.29 C214.65,307.78 231.17,314.35 231.17,331 C231.17,347.65 220.5396,355.3659 202.4996,351.8559 " fill="none" id="Citado-to-Citado" style="stroke:#181818;stroke-width:1.0;"/><polygon fill="#181818" points="196.61,350.71,204.6804,356.3552,201.518,351.6649,206.2083,348.5025,196.61,350.71" style="stroke:#181818;stroke-width:1.0;"/></g><!--link Citado to No_citado--><g id="link_Citado_No_citado"><path d="M138.44,356.24 C119.99,374.02 99.3704,393.9166 80.9404,411.6766 " fill="none" id="Citado-to-No_citado" style="stroke:#181818;stroke-width:1.0;"/><polygon fill="#181818" points="76.62,415.84,85.8763,412.4752,80.2204,412.3705,80.3251,406.7146,76.62,415.84" style="stroke:#181818;stroke-width:1.0;"/></g><!--link Citado to En_espera--><g id="link_Citado_En_espera"><path d="M166.71,356.24 C169.02,374.02 171.3694,392.1297 173.6694,409.8897 " fill="none" id="Citado-to-En_espera" style="stroke:#181818;stroke-width:1.0;"/><polygon fill="#181818" points="174.44,415.84,177.251,406.4008,173.7978,410.8814,169.3172,407.4283,174.44,415.84" style="stroke:#181818;stroke-width:1.0;"/></g><!--link En_espera to En_tratamiento--><g id="link_En_espera_En_tratamiento"><path d="M189.47,466.24 C198.2,484.02 207.3556,502.6942 216.0756,520.4542 " fill="none" id="En_espera-to-En_tratamiento" style="stroke:#181818;stroke-width:1.0;"/><polygon fill="#181818" points="218.72,525.84,218.344,515.9983,216.5163,521.3518,211.1629,519.5242,218.72,525.84" style="stroke:#181818;stroke-width:1.0;"/></g><!--link En_tratamiento to Alta--><g id="link_En_tratamiento_Alta"><path d="M234.59,525.82 C237.16,509.08 240.25,486.25 241.57,466 C249.68,341.64 221.5569,199.5837 208.6569,142.2437 " fill="none" id="En_tratamiento-to-Alta" style="stroke:#181818;stroke-width:1.0;"/><polygon fill="#181818" points="207.34,136.39,205.4129,146.0485,208.4374,141.2681,213.2179,144.2926,207.34,136.39" style="stroke:#181818;stroke-width:1.0;"/></g><!--link En_tratamiento to *end*--><g id="link_En_tratamiento_*end*"><path d="M245.51,576.21 C257.86,596.23 271.5484,618.4144 280.0484,632.1844 " fill="none" id="En_tratamiento-to-*end*" style="stroke:#181818;stroke-width:1.0;"/><polygon fill="#181818" points="283.2,637.29,281.8763,627.5305,280.5737,633.0353,275.0688,631.7327,283.2,637.29" style="stroke:#181818;stroke-width:1.0;"/></g><!--SRC=[YzQArTMrKt3CAKda0X4A89vhNbfgKMu-5vHMm5JXd5cIc9AFu4ThnN9n0GaG1vjkl_puP8WMP56eAH0AXmX29vAWQrvyQd51Qb4Y5vm54oyfIYn9pCrCpIi1sONCHNW3YpZGxG00]--></g></svg>