<svg xmlns="http://www.w3.org/2000/svg" xmlns:xlink="http://www.w3.org/1999/xlink" contentStyleType="text/css" height="502px" preserveAspectRatio="none" style="width:648px;height:502px;background:#FFFFFF;" version="1.1" viewBox="0 0 648 502" width="648px" zoomAndPan="magnify"><defs/><g><g id="elem_CentroDeSalud"><rect fill="#F1F1F1" height="36.2969" style="stroke:#181818;stroke-width:0.5;" width="119.5811" x="239.21" y="120.29"/><text fill="#000000" font-family="sans-serif" font-size="14" lengthAdjust="spacing" textLength="105.5811" x="246.21" y="135.2851">CentroDeSalud</text><line style="stroke:#181818;stroke-width:0.5;" x1="240.21" x2="357.7911" y1="140.5869" y2="140.5869"/></g><g id="elem_Paciente"><rect fill="#F1F1F1" height="36.2969" style="stroke:#181818;stroke-width:0.5;" width="74.1973" x="180.9" y="233.59"/><text fill="#000000" font-family="sans-serif" font-size="14" lengthAdjust="spacing" textLength="60.1973" x="187.9" y="248.5851">Paciente</text><line style="stroke:#181818;stroke-width:0.5;" x1="181.9" x2="254.0973" y1="253.8869" y2="253.8869"/></g><g id="elem_HistClinica"><rect fill="#F1F1F1" height="36.2969" style="stroke:#181818;stroke-width:0.5;" width="87.7939" x="77.1" y="460.18"/><text fill="#000000" font-family="sans-serif" font-size="14" lengthAdjust="spacing" textLength="73.7939" x="84.1" y="475.1751">HistClinica</text><line style="stroke:#181818;stroke-width:0.5;" x1="78.1" x2="163.8939" y1="480.4769" y2="480.4769"/></g><g id="elem_Tratamiento"><rect fill="#F1F1F1" height="36.2969" style="stroke:#181818;stroke-width:0.5;" width="100.0234" x="189.99" y="346.89"/><text fill="#000000" font-family="sans-serif" font-size="14" lengthAdjust="spacing" textLength="86.0234" x="196.99" y="361.8851">Tratamiento</text><line style="stroke:#181818;stroke-width:0.5;" x1="190.99" x2="289.0134" y1="367.1869" y2="367.1869"/></g><g id="elem_ProfMedico"><rect fill="#F1F1F1" height="36.2969" style="stroke:#181818;stroke-width:0.5;" width="91.4238" x="160.29" y="7"/><text fill="#000000" font-family="sans-serif" font-size="14" lengthAdjust="spacing" textLength="77.4238" x="167.29" y="21.9951">ProfMedico</text><line style="stroke:#181818;stroke-width:0.5;" x1="161.29" x2="250.7138" y1="27.2969" y2="27.2969"/></g><g id="elem_Urgencias"><rect fill="#F1F1F1" height="36.2969" style="stroke:#181818;stroke-width:0.5;" width="83.8359" x="325.08" y="346.89"/><text fill="#000000" font-family="sans-serif" font-size="14" lengthAdjust="spacing" textLength="69.8359" x="332.08" y="361.8851">Urgencias</text><line style="stroke:#181818;stroke-width:0.5;" x1="326.08" x2="407.9159" y1="367.1869" y2="367.1869"/></g><g id="elem_ProtMedico"><rect fill="#F1F1F1" height="36.2969" style="stroke:#181818;stroke-width:0.5;" width="91.9844" x="429.01" y="460.18"/><text fill="#000000" font-family="sans-serif" font-size="14" lengthAdjust="spacing" textLength="77.9844" x="436.01" y="475.1751">ProtMedico</text><line style="stroke:#181818;stroke-width:0.5;" x1="430.01" x2="519.9944" y1="480.4769" y2="480.4769"/></g><!--link CentroDeSalud to ProtMedico--><g id="link_CentroDeSalud_ProtMedico"><path codeLine="9" d="M330.99,157.02 C357.75,173.39 394.84,200.24 416,233.59 C463.35,308.22 472.4369,411.7658 474.2869,453.9158 " fill="none" id="CentroDeSalud-to-ProtMedico" style="stroke:#181818;stroke-width:1.0;"/><polygon fill="#181818" points="474.55,459.91,478.1515,450.7433,474.3308,454.9148,470.1592,451.0941,474.55,459.91" style="stroke:#181818;stroke-width:1.0;"/><text fill="#000000" font-family="sans-serif" font-size="13" lengthAdjust="spacing" textLength="32.9443" x="452" y="312.9569">tiene</text></g><!--link CentroDeSalud to Paciente--><g id="link_CentroDeSalud_Paciente"><path codeLine="10" d="M289.55,156.87 C282.11,170.09 271.16,188.5 260,203.59 C252.31,213.99 246.8621,220.4227 238.8321,229.0727 " fill="none" id="CentroDeSalud-to-Paciente" style="stroke:#181818;stroke-width:1.0;"/><polygon fill="#181818" points="234.75,233.47,243.8047,229.5955,238.1518,229.8056,237.9416,224.1526,234.75,233.47" style="stroke:#181818;stroke-width:1.0;"/><text fill="#000000" font-family="sans-serif" font-size="13" lengthAdjust="spacing" textLength="23.8228" x="273" y="199.6569">cita</text></g><!--link Paciente to CentroDeSalud--><g id="link_Paciente_CentroDeSalud"><path codeLine="11" d="M210.58,233.16 C206.06,219.51 202.6,200.62 211,186.59 C218.75,173.65 226.082,166.8574 239.402,159.8374 " fill="none" id="Paciente-to-CentroDeSalud" style="stroke:#181818;stroke-width:1.0;"/><polygon fill="#181818" points="244.71,157.04,234.8831,157.6975,240.2867,159.3712,238.613,164.7748,244.71,157.04" style="stroke:#181818;stroke-width:1.0;"/><text fill="#000000" font-family="sans-serif" font-size="13" lengthAdjust="spacing" textLength="39.603" x="212" y="199.6569">acude</text></g><!--link Paciente to Urgencias--><g id="link_Paciente_Urgencias"><path codeLine="12" d="M234.97,270.13 C248.64,283.67 268.7,302.52 288,316.89 C302.48,327.66 314.3581,335.1374 328.9281,343.4474 " fill="none" id="Paciente-to-Urgencias" style="stroke:#181818;stroke-width:1.0;"/><polygon fill="#181818" points="334.14,346.42,328.3039,338.4865,329.7968,343.9428,324.3405,345.4357,334.14,346.42" style="stroke:#181818;stroke-width:1.0;"/><text fill="#000000" font-family="sans-serif" font-size="13" lengthAdjust="spacing" textLength="39.603" x="289" y="312.9569">acude</text></g><!--link Paciente to HistClinica--><g id="link_Paciente_HistClinica"><path codeLine="13" d="M197.48,270.27 C178.64,287.66 151.64,316.1 138,346.89 C121.26,384.68 119.5691,428.2412 120.0891,454.0412 " fill="none" id="Paciente-to-HistClinica" style="stroke:#181818;stroke-width:1.0;"/><polygon fill="#181818" points="120.21,460.04,124.0278,450.9612,120.1092,455.041,116.0295,451.1224,120.21,460.04" style="stroke:#181818;stroke-width:1.0;"/><text fill="#000000" font-family="sans-serif" font-size="13" lengthAdjust="spacing" textLength="32.9443" x="139" y="369.5969">tiene</text></g><!--link Paciente to Tratamiento--><g id="link_Paciente_Tratamiento"><path codeLine="14" d="M213.05,270.18 C210.13,283.25 207.77,301.46 212,316.89 C214.92,327.54 217.6042,333.2294 223.3142,341.7294 " fill="none" id="Paciente-to-Tratamiento" style="stroke:#181818;stroke-width:1.0;"/><polygon fill="#181818" points="226.66,346.71,224.9617,337.0087,223.8719,342.5595,218.321,341.4697,226.66,346.71" style="stroke:#181818;stroke-width:1.0;"/><text fill="#000000" font-family="sans-serif" font-size="13" lengthAdjust="spacing" textLength="34.874" x="213" y="312.9569">sigue</text></g><!--link Tratamiento to HistClinica--><g id="link_Tratamiento_HistClinica"><path codeLine="15" d="M221.14,383.67 C198.86,404.51 166.3912,434.8705 144.1512,455.6805 " fill="none" id="Tratamiento-to-HistClinica" style="stroke:#181818;stroke-width:1.0;"/><polygon fill="#181818" points="139.77,459.78,149.0747,456.5516,143.421,456.3638,143.6088,450.7101,139.77,459.78" style="stroke:#181818;stroke-width:1.0;"/><text fill="#000000" font-family="sans-serif" font-size="13" lengthAdjust="spacing" textLength="38.5049" x="189" y="426.2469">forma</text></g><!--link Urgencias to CentroDeSalud--><g id="link_Urgencias_CentroDeSalud"><path codeLine="16" d="M361.69,346.49 C349,304.59 318.7883,204.7927 306.0783,162.8027 " fill="none" id="Urgencias-to-CentroDeSalud" style="stroke:#181818;stroke-width:1.0;"/><polygon fill="#181818" points="304.34,157.06,303.1189,166.8329,305.7886,161.8456,310.7758,164.5152,304.34,157.06" style="stroke:#181818;stroke-width:1.0;"/><text fill="#000000" font-family="sans-serif" font-size="13" lengthAdjust="spacing" textLength="68.4912" x="339" y="256.3069">englobada</text></g><!--link Urgencias to ProtMedico--><g id="link_Urgencias_ProtMedico"><path codeLine="17" d="M377.45,383.44 C386.05,396.99 399.05,415.84 413,430.18 C423.65,441.14 432.1007,448.1182 443.6707,456.3982 " fill="none" id="Urgencias-to-ProtMedico" style="stroke:#181818;stroke-width:1.0;"/><polygon fill="#181818" points="448.55,459.89,443.559,451.3994,444.4839,456.9802,438.9032,457.9051,448.55,459.89" style="stroke:#181818;stroke-width:1.0;"/><text fill="#000000" font-family="sans-serif" font-size="13" lengthAdjust="spacing" textLength="34.874" x="414" y="426.2469">sigue</text></g><!--link ProfMedico to CentroDeSalud--><g id="link_ProfMedico_CentroDeSalud"><path codeLine="18" d="M220.53,43.53 C237.9,64.32 262.9533,94.3054 280.4133,115.2054 " fill="none" id="ProfMedico-to-CentroDeSalud" style="stroke:#181818;stroke-width:1.0;"/><polygon fill="#181818" points="284.26,119.81,281.5596,110.3386,281.0544,115.9728,275.4201,115.4675,284.26,119.81" style="stroke:#181818;stroke-width:1.0;"/><text fill="#000000" font-family="sans-serif" font-size="13" lengthAdjust="spacing" textLength="38.5049" x="260" y="86.3569">forma</text></g><!--link ProfMedico to ProtMedico--><g id="link_ProfMedico_ProtMedico"><path codeLine="19" d="M251.94,30.71 C348.36,41.58 563,73.01 563,137.44 C563,137.44 563,137.44 563,366.03 C563,406.19 532.1138,436.7217 506.1938,456.2317 " fill="none" id="ProfMedico-to-ProtMedico" style="stroke:#181818;stroke-width:1.0;"/><polygon fill="#181818" points="501.4,459.84,510.9962,457.6234,505.3948,456.8331,506.1851,451.2317,501.4,459.84" style="stroke:#181818;stroke-width:1.0;"/><text fill="#000000" font-family="sans-serif" font-size="13" lengthAdjust="spacing" textLength="76.8511" x="564" y="256.3069">debe seguir</text></g><!--link ProfMedico to Tratamiento--><g id="link_ProfMedico_Tratamiento"><path codeLine="20" d="M196.37,43.75 C175.19,84.96 129.06,190.23 163,269.89 C176.08,300.58 198.0091,325.0975 216.2091,342.5475 " fill="none" id="ProfMedico-to-Tratamiento" style="stroke:#181818;stroke-width:1.0;"/><polygon fill="#181818" points="220.54,346.7,216.8119,337.584,216.9309,343.2396,211.2753,343.3586,220.54,346.7" style="stroke:#181818;stroke-width:1.0;"/><text fill="#000000" font-family="sans-serif" font-size="13" lengthAdjust="spacing" textLength="42.8086" x="153" y="199.6569">asigna</text></g><!--link ProfMedico to HistClinica--><g id="link_ProfMedico_HistClinica"><path codeLine="21" d="M159.86,31.43 C100.8,41.05 6,67.41 6,137.44 C6,137.44 6,137.44 6,366.03 C6,409.66 43.9799,438.7619 77.4399,456.9719 " fill="none" id="ProfMedico-to-HistClinica" style="stroke:#181818;stroke-width:1.0;"/><polygon fill="#181818" points="82.71,459.84,76.717,452.0244,78.3183,457.4499,72.8928,459.0512,82.71,459.84" style="stroke:#181818;stroke-width:1.0;"/><text fill="#000000" font-family="sans-serif" font-size="13" lengthAdjust="spacing" textLength="55.0278" x="7" y="256.3069">consulta</text></g><!--SRC=[RP1B3iCW34Jtd88Bv08ikaaNtLIgrFO03ZZ85G69p_sRD852aYNZnypORlYWZBn76xsxuXDCKiojuWCapJhczur2x0rPaf2bbuS8qqAvyikxyOwAP57UNgEL1A52ueQm9fbttQMQ2XvdQpnZjcg2Iuh0ylCtQsZ1GIQ5BL4AdKwhDNE1PbxjB7WWdP1Lqj5YT7u2LZBFEgBLnWsWzbXzYZNfVzq5sDciIItIU2WSa0VKYVmUQxQ2ESmUd9gjfBCXcGXV]--></g></svg>