<svg xmlns="http://www.w3.org/2000/svg" xmlns:xlink="http://www.w3.org/1999/xlink" contentStyleType="text/css" height="554px" preserveAspectRatio="none" style="width:216px;height:554px;background:#FFFFFF;" version="1.1" viewBox="0 0 216 554" width="216px" zoomAndPan="magnify"><defs/><g><ellipse cx="164.19" cy="16" fill="#222222" rx="10" ry="10" style="stroke:#222222;stroke-width:1.0;"/><g id="Trabajando"><rect fill="#F1F1F1" height="50" rx="12.5" ry="12.5" style="stroke:#181818;stroke-width:0.5;" width="99.1465" x="60.61" y="86"/><line style="stroke:#181818;stroke-width:0.5;" x1="60.61" x2="159.7565" y1="112.2969" y2="112.2969"/><text fill="#000000" font-family="sans-serif" font-size="14" lengthAdjust="spacing" textLength="79.1465" x="70.61" y="103.9951">Trabajando</text></g><g id="Guardia"><rect fill="#F1F1F1" height="50" rx="12.5" ry="12.5" style="stroke:#181818;stroke-width:0.5;" width="75.4121" x="72.48" y="196"/><line style="stroke:#181818;stroke-width:0.5;" x1="72.48" x2="147.8921" y1="222.2969" y2="222.2969"/><text fill="#000000" font-family="sans-serif" font-size="14" lengthAdjust="spacing" textLength="55.4121" x="82.48" y="213.9951">Guardia</text></g><g id="En_cita"><rect fill="#F1F1F1" height="50" rx="12.5" ry="12.5" style="stroke:#181818;stroke-width:0.5;" width="70.374" x="7" y="306"/><line style="stroke:#181818;stroke-width:0.5;" x1="7" x2="77.374" y1="332.2969" y2="332.2969"/><text fill="#000000" font-family="sans-serif" font-size="14" lengthAdjust="spacing" textLength="50.374" x="17" y="323.9951">En_cita</text></g><g id="No_trabajando"><rect fill="#F1F1F1" height="50" rx="12.5" ry="12.5" style="stroke:#181818;stroke-width:0.5;" width="122.1221" x="87.13" y="416"/><line style="stroke:#181818;stroke-width:0.5;" x1="87.13" x2="209.2521" y1="442.2969" y2="442.2969"/><text fill="#000000" font-family="sans-serif" font-size="14" lengthAdjust="spacing" textLength="102.1221" x="97.13" y="433.9951">No_trabajando</text></g><ellipse cx="148.19" cy="537" fill="none" rx="11" ry="11" style="stroke:#222222;stroke-width:1.0;"/><ellipse cx="148.19" cy="537" fill="#222222" rx="6" ry="6" style="stroke:#222222;stroke-width:1.0;"/><!--link *start* to Trabajando--><g id="link_*start*_Trabajando"><path d="M159.39,25.25 C151.6,38.68 138.8921,60.5608 127.3121,80.5108 " fill="none" id="*start*-to-Trabajando" style="stroke:#181818;stroke-width:1.0;"/><polygon fill="#181818" points="124.3,85.7,132.2775,79.9243,126.8101,81.3757,125.3586,75.9082,124.3,85.7" style="stroke:#181818;stroke-width:1.0;"/></g><!--link Trabajando to Guardia--><g id="link_Trabajando_Guardia"><path d="M110.19,136.24 C110.19,154.02 110.19,172.08 110.19,189.84 " fill="none" id="Trabajando-to-Guardia" style="stroke:#181818;stroke-width:1.0;"/><polygon fill="#181818" points="110.19,195.84,114.19,186.84,110.19,190.84,106.19,186.84,110.19,195.84" style="stroke:#181818;stroke-width:1.0;"/></g><!--link Guardia to Guardia--><g id="link_Guardia_Guardia"><path d="M148.34,200.88 C166.69,198.39 182.89,205.1 182.89,221 C182.89,236.9 172.6355,244.4168 154.2855,241.9268 " fill="none" id="Guardia-to-Guardia" style="stroke:#181818;stroke-width:1.0;"/><polygon fill="#181818" points="148.34,241.12,156.7204,246.2938,153.2946,241.7923,157.7961,238.3665,148.34,241.12" style="stroke:#181818;stroke-width:1.0;"/></g><!--link Trabajando to En_cita--><g id="link_Trabajando_En_cita"><path d="M89.62,136.39 C77.42,152.31 62.88,174.13 55.19,196 C42.31,232.6 40.576,272.0807 41.006,299.5307 " fill="none" id="Trabajando-to-En_cita" style="stroke:#181818;stroke-width:1.0;"/><polygon fill="#181818" points="41.1,305.53,44.9585,296.4685,41.0217,300.5306,36.9595,296.5938,41.1,305.53" style="stroke:#181818;stroke-width:1.0;"/></g><!--link En_cita to En_cita--><g id="link_En_cita_En_cita"><path d="M77.58,311.1 C95.88,308.04 112.37,314.67 112.37,331 C112.37,347.33 101.7978,354.9495 83.4978,351.8895 " fill="none" id="En_cita-to-En_cita" style="stroke:#181818;stroke-width:1.0;"/><polygon fill="#181818" points="77.58,350.9,85.7971,356.3295,82.5115,351.7246,87.1165,348.4391,77.58,350.9" style="stroke:#181818;stroke-width:1.0;"/></g><!--link Guardia to En_cita--><g id="link_Guardia_En_cita"><path d="M84.08,246.24 C70.34,264.02 57.8248,282.6846 49.1848,300.4446 " fill="none" id="Guardia-to-En_cita" style="stroke:#181818;stroke-width:1.0;"/><polygon fill="#181818" points="46.56,305.84,54.0941,299.4967,48.7473,301.3438,46.9003,295.997,46.56,305.84" style="stroke:#181818;stroke-width:1.0;"/></g><!--link En_cita to Guardia--><g id="link_En_cita_Guardia"><path d="M68.87,305.84 C82.76,288.08 95.3097,269.432 103.8197,251.652 " fill="none" id="En_cita-to-Guardia" style="stroke:#181818;stroke-width:1.0;"/><polygon fill="#181818" points="106.41,246.24,98.9165,252.6311,104.2514,250.75,106.1325,256.0849,106.41,246.24" style="stroke:#181818;stroke-width:1.0;"/></g><!--link Guardia to No_trabajando--><g id="link_Guardia_No_trabajando"><path d="M114.4,246.16 C121.7,288.07 135.6093,367.8392 142.9293,409.8192 " fill="none" id="Guardia-to-No_trabajando" style="stroke:#181818;stroke-width:1.0;"/><polygon fill="#181818" points="143.96,415.73,146.3546,406.1767,143.1011,410.8043,138.4735,407.5509,143.96,415.73" style="stroke:#181818;stroke-width:1.0;"/></g><!--link En_cita to No_trabajando--><g id="link_En_cita_No_trabajando"><path d="M65.98,356.24 C83.43,374.02 102.8361,393.799 120.2761,411.559 " fill="none" id="En_cita-to-No_trabajando" style="stroke:#181818;stroke-width:1.0;"/><polygon fill="#181818" points="124.48,415.84,121.0282,406.6159,120.9768,412.2725,115.3201,412.221,124.48,415.84" style="stroke:#181818;stroke-width:1.0;"/></g><!--link *start* to No_trabajando--><g id="link_*start*_No_trabajando"><path d="M166.25,25.87 C169.2,38.95 174.55,64.22 177.19,86 C185.73,156.65 189.53,175.12 183.19,246 C177.67,307.7 163.8096,373.2838 155.3696,409.8438 " fill="none" id="*start*-to-No_trabajando" style="stroke:#181818;stroke-width:1.0;"/><polygon fill="#181818" points="154.02,415.69,159.9419,407.8204,155.1447,410.8181,152.1469,406.0209,154.02,415.69" style="stroke:#181818;stroke-width:1.0;"/></g><!--link No_trabajando to *end*--><g id="link_No_trabajando_*end*"><path d="M148.19,466.21 C148.19,485.57 148.19,505.75 148.19,519.9 " fill="none" id="No_trabajando-to-*end*" style="stroke:#181818;stroke-width:1.0;"/><polygon fill="#181818" points="148.19,525.9,152.19,516.9,148.19,520.9,144.19,516.9,148.19,525.9" style="stroke:#181818;stroke-width:1.0;"/></g><!--SRC=[YzQALT3LjLC8AKfCIinAp4l9vq8mmJBkfOb5APc9N50QHGnDgMjUV79cII8Nb4OHGzQEJHqsQ_pouqiGxa9MZIh3nHKDzGQgE0eFB0zK1m00]--></g></svg>