<svg xmlns="http://www.w3.org/2000/svg" xmlns:xlink="http://www.w3.org/1999/xlink" contentStyleType="text/css" height="562px" preserveAspectRatio="none" style="width:669px;height:562px;background:#FFFFFF;" version="1.1" viewBox="0 0 669 562" width="669px" zoomAndPan="magnify"><defs/><g><!--class Profmed--><g id="elem_Profmed"><rect codeLine="1" fill="#F1F1F1" height="48" id="Profmed" rx="2.5" ry="2.5" style="stroke:#181818;stroke-width:0.5;" width="90.8301" x="222.39" y="7"/><ellipse cx="237.39" cy="23" fill="#ADD1B2" rx="11" ry="11" style="stroke:#181818;stroke-width:1.0;"/><path d="M240.3588,28.6406 Q239.7806,28.9375 239.14,29.0781 Q238.4994,29.2344 237.7963,29.2344 Q235.2963,29.2344 233.9681,27.5938 Q232.6556,25.9375 232.6556,22.8125 Q232.6556,19.6875 233.9681,18.0313 Q235.2963,16.375 237.7963,16.375 Q238.4994,16.375 239.14,16.5313 Q239.7963,16.6875 240.3588,16.9844 L240.3588,19.7031 Q239.7338,19.125 239.14,18.8594 Q238.5463,18.5781 237.9213,18.5781 Q236.5775,18.5781 235.89,19.6563 Q235.2025,20.7188 235.2025,22.8125 Q235.2025,24.9063 235.89,25.9844 Q236.5775,27.0469 237.9213,27.0469 Q238.5463,27.0469 239.14,26.7813 Q239.7338,26.5 240.3588,25.9219 L240.3588,28.6406 Z " fill="#000000"/><text fill="#000000" font-family="sans-serif" font-size="14" lengthAdjust="spacing" textLength="58.8301" x="251.39" y="27.8467">Profmed</text><line style="stroke:#181818;stroke-width:0.5;" x1="223.39" x2="312.2201" y1="39" y2="39"/><line style="stroke:#181818;stroke-width:0.5;" x1="223.39" x2="312.2201" y1="47" y2="47"/></g><!--class Paciente--><g id="elem_Paciente"><rect codeLine="2" fill="#F1F1F1" height="48" id="Paciente" rx="2.5" ry="2.5" style="stroke:#181818;stroke-width:0.5;" width="92.1973" x="303.7" y="132"/><ellipse cx="318.7" cy="148" fill="#ADD1B2" rx="11" ry="11" style="stroke:#181818;stroke-width:1.0;"/><path d="M321.6688,153.6406 Q321.0906,153.9375 320.45,154.0781 Q319.8094,154.2344 319.1063,154.2344 Q316.6063,154.2344 315.2781,152.5938 Q313.9656,150.9375 313.9656,147.8125 Q313.9656,144.6875 315.2781,143.0313 Q316.6063,141.375 319.1063,141.375 Q319.8094,141.375 320.45,141.5313 Q321.1063,141.6875 321.6688,141.9844 L321.6688,144.7031 Q321.0438,144.125 320.45,143.8594 Q319.8563,143.5781 319.2313,143.5781 Q317.8875,143.5781 317.2,144.6563 Q316.5125,145.7188 316.5125,147.8125 Q316.5125,149.9063 317.2,150.9844 Q317.8875,152.0469 319.2313,152.0469 Q319.8563,152.0469 320.45,151.7813 Q321.0438,151.5 321.6688,150.9219 L321.6688,153.6406 Z " fill="#000000"/><text fill="#000000" font-family="sans-serif" font-size="14" lengthAdjust="spacing" textLength="60.1973" x="332.7" y="152.8467">Paciente</text><line style="stroke:#181818;stroke-width:0.5;" x1="304.7" x2="394.8973" y1="164" y2="164"/><line style="stroke:#181818;stroke-width:0.5;" x1="304.7" x2="394.8973" y1="172" y2="172"/></g><!--class Tratamiento--><g id="elem_Tratamiento"><rect codeLine="3" fill="#F1F1F1" height="48" id="Tratamiento" rx="2.5" ry="2.5" style="stroke:#181818;stroke-width:0.5;" width="118.0234" x="37.79" y="257"/><ellipse cx="52.79" cy="273" fill="#ADD1B2" rx="11" ry="11" style="stroke:#181818;stroke-width:1.0;"/><path d="M55.7588,278.6406 Q55.1806,278.9375 54.54,279.0781 Q53.8994,279.2344 53.1963,279.2344 Q50.6963,279.2344 49.3681,277.5938 Q48.0556,275.9375 48.0556,272.8125 Q48.0556,269.6875 49.3681,268.0313 Q50.6963,266.375 53.1963,266.375 Q53.8994,266.375 54.54,266.5313 Q55.1963,266.6875 55.7588,266.9844 L55.7588,269.7031 Q55.1338,269.125 54.54,268.8594 Q53.9463,268.5781 53.3213,268.5781 Q51.9775,268.5781 51.29,269.6563 Q50.6025,270.7188 50.6025,272.8125 Q50.6025,274.9063 51.29,275.9844 Q51.9775,277.0469 53.3213,277.0469 Q53.9463,277.0469 54.54,276.7813 Q55.1338,276.5 55.7588,275.9219 L55.7588,278.6406 Z " fill="#000000"/><text fill="#000000" font-family="sans-serif" font-size="14" lengthAdjust="spacing" textLength="86.0234" x="66.79" y="277.8467">Tratamiento</text><line style="stroke:#181818;stroke-width:0.5;" x1="38.79" x2="154.8134" y1="289" y2="289"/><line style="stroke:#181818;stroke-width:0.5;" x1="38.79" x2="154.8134" y1="297" y2="297"/></g><!--class HistClinico--><g id="elem_HistClinico"><rect codeLine="4" fill="#F1F1F1" height="48" id="HistClinico" rx="2.5" ry="2.5" style="stroke:#181818;stroke-width:0.5;" width="105.7803" x="42.91" y="382"/><ellipse cx="57.91" cy="398" fill="#ADD1B2" rx="11" ry="11" style="stroke:#181818;stroke-width:1.0;"/><path d="M60.8788,403.6406 Q60.3006,403.9375 59.66,404.0781 Q59.0194,404.2344 58.3163,404.2344 Q55.8163,404.2344 54.4881,402.5938 Q53.1756,400.9375 53.1756,397.8125 Q53.1756,394.6875 54.4881,393.0313 Q55.8163,391.375 58.3163,391.375 Q59.0194,391.375 59.66,391.5313 Q60.3163,391.6875 60.8788,391.9844 L60.8788,394.7031 Q60.2538,394.125 59.66,393.8594 Q59.0663,393.5781 58.4413,393.5781 Q57.0975,393.5781 56.41,394.6563 Q55.7225,395.7188 55.7225,397.8125 Q55.7225,399.9063 56.41,400.9844 Q57.0975,402.0469 58.4413,402.0469 Q59.0663,402.0469 59.66,401.7813 Q60.2538,401.5 60.8788,400.9219 L60.8788,403.6406 Z " fill="#000000"/><text fill="#000000" font-family="sans-serif" font-size="14" lengthAdjust="spacing" textLength="73.7803" x="71.91" y="402.8467">HistClinico</text><line style="stroke:#181818;stroke-width:0.5;" x1="43.91" x2="147.6903" y1="414" y2="414"/><line style="stroke:#181818;stroke-width:0.5;" x1="43.91" x2="147.6903" y1="422" y2="422"/></g><!--class CentroSalud--><g id="elem_CentroSalud"><rect codeLine="5" fill="#F1F1F1" height="48" id="CentroSalud" rx="2.5" ry="2.5" style="stroke:#181818;stroke-width:0.5;" width="118.1875" x="196.71" y="257"/><ellipse cx="211.71" cy="273" fill="#ADD1B2" rx="11" ry="11" style="stroke:#181818;stroke-width:1.0;"/><path d="M214.6788,278.6406 Q214.1006,278.9375 213.46,279.0781 Q212.8194,279.2344 212.1163,279.2344 Q209.6163,279.2344 208.2881,277.5938 Q206.9756,275.9375 206.9756,272.8125 Q206.9756,269.6875 208.2881,268.0313 Q209.6163,266.375 212.1163,266.375 Q212.8194,266.375 213.46,266.5313 Q214.1163,266.6875 214.6788,266.9844 L214.6788,269.7031 Q214.0538,269.125 213.46,268.8594 Q212.8663,268.5781 212.2413,268.5781 Q210.8975,268.5781 210.21,269.6563 Q209.5225,270.7188 209.5225,272.8125 Q209.5225,274.9063 210.21,275.9844 Q210.8975,277.0469 212.2413,277.0469 Q212.8663,277.0469 213.46,276.7813 Q214.0538,276.5 214.6788,275.9219 L214.6788,278.6406 Z " fill="#000000"/><text fill="#000000" font-family="sans-serif" font-size="14" lengthAdjust="spacing" textLength="86.1875" x="225.71" y="277.8467">CentroSalud</text><line style="stroke:#181818;stroke-width:0.5;" x1="197.71" x2="313.8975" y1="289" y2="289"/><line style="stroke:#181818;stroke-width:0.5;" x1="197.71" x2="313.8975" y1="297" y2="297"/></g><!--class ProtocolosMedicos--><g id="elem_ProtocolosMedicos"><rect codeLine="6" fill="#F1F1F1" height="48" id="ProtocolosMedicos" rx="2.5" ry="2.5" style="stroke:#181818;stroke-width:0.5;" width="161.8555" x="319.87" y="507"/><ellipse cx="334.87" cy="523" fill="#ADD1B2" rx="11" ry="11" style="stroke:#181818;stroke-width:1.0;"/><path d="M337.8388,528.6406 Q337.2606,528.9375 336.62,529.0781 Q335.9794,529.2344 335.2763,529.2344 Q332.7763,529.2344 331.4481,527.5938 Q330.1356,525.9375 330.1356,522.8125 Q330.1356,519.6875 331.4481,518.0313 Q332.7763,516.375 335.2763,516.375 Q335.9794,516.375 336.62,516.5313 Q337.2763,516.6875 337.8388,516.9844 L337.8388,519.7031 Q337.2138,519.125 336.62,518.8594 Q336.0263,518.5781 335.4013,518.5781 Q334.0575,518.5781 333.37,519.6563 Q332.6825,520.7188 332.6825,522.8125 Q332.6825,524.9063 333.37,525.9844 Q334.0575,527.0469 335.4013,527.0469 Q336.0263,527.0469 336.62,526.7813 Q337.2138,526.5 337.8388,525.9219 L337.8388,528.6406 Z " fill="#000000"/><text fill="#000000" font-family="sans-serif" font-size="14" lengthAdjust="spacing" textLength="129.8555" x="348.87" y="527.8467">ProtocolosMedicos</text><line style="stroke:#181818;stroke-width:0.5;" x1="320.87" x2="480.7255" y1="539" y2="539"/><line style="stroke:#181818;stroke-width:0.5;" x1="320.87" x2="480.7255" y1="547" y2="547"/></g><!--class Urgencias--><g id="elem_Urgencias"><rect codeLine="7" fill="#F1F1F1" height="48" id="Urgencias" rx="2.5" ry="2.5" style="stroke:#181818;stroke-width:0.5;" width="101.8359" x="349.88" y="382"/><ellipse cx="364.88" cy="398" fill="#ADD1B2" rx="11" ry="11" style="stroke:#181818;stroke-width:1.0;"/><path d="M367.8488,403.6406 Q367.2706,403.9375 366.63,404.0781 Q365.9894,404.2344 365.2863,404.2344 Q362.7863,404.2344 361.4581,402.5938 Q360.1456,400.9375 360.1456,397.8125 Q360.1456,394.6875 361.4581,393.0313 Q362.7863,391.375 365.2863,391.375 Q365.9894,391.375 366.63,391.5313 Q367.2863,391.6875 367.8488,391.9844 L367.8488,394.7031 Q367.2238,394.125 366.63,393.8594 Q366.0363,393.5781 365.4113,393.5781 Q364.0675,393.5781 363.38,394.6563 Q362.6925,395.7188 362.6925,397.8125 Q362.6925,399.9063 363.38,400.9844 Q364.0675,402.0469 365.4113,402.0469 Q366.0363,402.0469 366.63,401.7813 Q367.2238,401.5 367.8488,400.9219 L367.8488,403.6406 Z " fill="#000000"/><text fill="#000000" font-family="sans-serif" font-size="14" lengthAdjust="spacing" textLength="69.8359" x="378.88" y="402.8467">Urgencias</text><line style="stroke:#181818;stroke-width:0.5;" x1="350.88" x2="450.7159" y1="414" y2="414"/><line style="stroke:#181818;stroke-width:0.5;" x1="350.88" x2="450.7159" y1="422" y2="422"/></g><!--class paciente--><g id="elem_paciente"><rect fill="#F1F1F1" height="48" id="paciente" rx="2.5" ry="2.5" style="stroke:#181818;stroke-width:0.5;" width="92.6416" x="49.48" y="507"/><ellipse cx="64.48" cy="523" fill="#ADD1B2" rx="11" ry="11" style="stroke:#181818;stroke-width:1.0;"/><path d="M67.4487,528.6406 Q66.8706,528.9375 66.23,529.0781 Q65.5894,529.2344 64.8862,529.2344 Q62.3862,529.2344 61.0581,527.5938 Q59.7456,525.9375 59.7456,522.8125 Q59.7456,519.6875 61.0581,518.0313 Q62.3862,516.375 64.8862,516.375 Q65.5894,516.375 66.23,516.5313 Q66.8862,516.6875 67.4487,516.9844 L67.4487,519.7031 Q66.8237,519.125 66.23,518.8594 Q65.6362,518.5781 65.0112,518.5781 Q63.6675,518.5781 62.98,519.6563 Q62.2925,520.7188 62.2925,522.8125 Q62.2925,524.9063 62.98,525.9844 Q63.6675,527.0469 65.0112,527.0469 Q65.6362,527.0469 66.23,526.7813 Q66.8237,526.5 67.4487,525.9219 L67.4487,528.6406 Z " fill="#000000"/><text fill="#000000" font-family="sans-serif" font-size="14" lengthAdjust="spacing" textLength="60.6416" x="78.48" y="527.8467">paciente</text><line style="stroke:#181818;stroke-width:0.5;" x1="50.48" x2="141.1216" y1="539" y2="539"/><line style="stroke:#181818;stroke-width:0.5;" x1="50.48" x2="141.1216" y1="547" y2="547"/></g><!--link CentroSalud to ProtocolosMedicos--><g id="link_CentroSalud_ProtocolosMedicos"><path codeLine="9" d="M253.6,305.48 C251.83,336.17 252.58,390.63 274.8,430 C293.54,463.2 323.0017,486.2891 351.2017,503.5391 " fill="none" id="CentroSalud-to-ProtocolosMedicos" style="stroke:#181818;stroke-width:1.0;"/><polygon fill="#181818" points="356.32,506.67,350.7298,498.5614,352.0547,504.0609,346.5552,505.3859,356.32,506.67" style="stroke:#181818;stroke-width:1.0;"/><text fill="#000000" font-family="sans-serif" font-size="13" lengthAdjust="spacing" textLength="56.2847" x="275.8" y="410.5669">contiene</text></g><!--link CentroSalud to Urgencias--><g id="link_CentroSalud_Urgencias"><path codeLine="10" d="M276.87,305.46 C290.05,319.59 307.72,337.59 324.8,352 C337.22,362.48 346.7121,369.5607 359.6521,378.3807 " fill="none" id="CentroSalud-to-Urgencias" style="stroke:#181818;stroke-width:1.0;"/><polygon fill="#181818" points="364.61,381.76,359.4261,373.3858,360.4785,378.9439,354.9204,379.9963,364.61,381.76" style="stroke:#181818;stroke-width:1.0;"/><text fill="#000000" font-family="sans-serif" font-size="13" lengthAdjust="spacing" textLength="32.9443" x="325.8" y="348.0669">tiene</text></g><!--link CentroSalud to Profmed--><g id="link_CentroSalud_Profmed"><path codeLine="11" d="M229.51,256.69 C221.53,248.17 213.62,237.91 208.8,227 C191.73,188.32 191.93,172.58 203.8,132 C212.31,102.92 228.395,78.9397 243.745,59.8097 " fill="none" id="CentroSalud-to-Profmed" style="stroke:#181818;stroke-width:1.0;"/><polygon fill="#181818" points="247.5,55.13,238.7476,59.6462,244.3708,59.0298,244.9873,64.6529,247.5,55.13" style="stroke:#181818;stroke-width:1.0;"/><text fill="#000000" font-family="sans-serif" font-size="13" lengthAdjust="spacing" textLength="80.3931" x="204.8" y="160.5669">formado por</text></g><!--link CentroSalud to HistClinico--><g id="link_CentroSalud_HistClinico"><path codeLine="12" d="M216.03,305.48 C202.02,314.25 186.38,324.61 172.8,335 C154,349.38 138.614,363.2207 123.834,377.3707 " fill="none" id="CentroSalud-to-HistClinico" style="stroke:#181818;stroke-width:1.0;"/><polygon fill="#181818" points="119.5,381.52,128.7672,378.1854,123.1117,378.0623,123.2348,372.4068,119.5,381.52" style="stroke:#181818;stroke-width:1.0;"/><text fill="#000000" font-family="sans-serif" font-size="13" lengthAdjust="spacing" textLength="56.2847" x="173.8" y="348.0669">contiene</text></g><!--link Urgencias to ProtocolosMedicos--><g id="link_Urgencias_ProtocolosMedicos"><path codeLine="14" d="M400.8,430.42 C400.8,452.31 400.8,478.8 400.8,500.66 " fill="none" id="Urgencias-to-ProtocolosMedicos" style="stroke:#181818;stroke-width:1.0;"/><polygon fill="#181818" points="400.8,506.66,404.8,497.66,400.8,501.66,396.8,497.66,400.8,506.66" style="stroke:#181818;stroke-width:1.0;"/><text fill="#000000" font-family="sans-serif" font-size="13" lengthAdjust="spacing" textLength="34.874" x="401.8" y="473.0669">sigue</text></g><!--link Urgencias to Profmed--><g id="link_Urgencias_Profmed"><path codeLine="15" d="M409.03,381.52 C415.59,361.48 424.26,331.74 427.8,305 C437.94,228.53 445.28,202.42 413.8,132 C395.18,90.35 354.549,65.7472 319.069,50.4372 " fill="none" id="Urgencias-to-Profmed" style="stroke:#181818;stroke-width:1.0;"/><polygon fill="#181818" points="313.56,48.06,320.2387,55.2984,318.1508,50.041,323.4083,47.9531,313.56,48.06" style="stroke:#181818;stroke-width:1.0;"/><text fill="#000000" font-family="sans-serif" font-size="13" lengthAdjust="spacing" textLength="80.3931" x="436.8" y="223.0669">formado por</text></g><!--link Profmed to ProtocolosMedicos--><g id="link_Profmed_ProtocolosMedicos"><path codeLine="17" d="M313.41,39.91 C400.92,56.39 583.8,97.67 583.8,155 C583.8,155 583.8,155 583.8,407 C583.8,459.64 536.6419,489.1407 487.7619,507.1007 " fill="none" id="Profmed-to-ProtocolosMedicos" style="stroke:#181818;stroke-width:1.0;"/><polygon fill="#181818" points="482.13,509.17,491.9573,509.8206,486.8232,507.4456,489.1983,502.3114,482.13,509.17" style="stroke:#181818;stroke-width:1.0;"/><text fill="#000000" font-family="sans-serif" font-size="13" lengthAdjust="spacing" textLength="76.8511" x="584.8" y="285.5669">debe seguir</text></g><!--link Profmed to Tratamiento--><g id="link_Profmed_Tratamiento"><path codeLine="18" d="M227.28,55.38 C199.8,73.16 164.65,99.97 142.8,132 C116.26,170.9 105.4293,219.8508 100.6493,250.6808 " fill="none" id="Profmed-to-Tratamiento" style="stroke:#181818;stroke-width:1.0;"/><polygon fill="#181818" points="99.73,256.61,105.0617,248.3291,100.4961,251.669,97.1561,247.1034,99.73,256.61" style="stroke:#181818;stroke-width:1.0;"/><text fill="#000000" font-family="sans-serif" font-size="13" lengthAdjust="spacing" textLength="42.8086" x="143.8" y="160.5669">asigna</text></g><!--link Profmed to HistClinico--><g id="link_Profmed_HistClinico"><path codeLine="19" d="M221.89,51.11 C202.33,60.16 179.7,71.87 160.8,85 C97.55,128.94 82.73,145.41 40.8,210 C17.26,246.27 6,264.02 19.8,305 C29.9,334.96 48.7729,358.7531 66.8529,377.4831 " fill="none" id="Profmed-to-HistClinico" style="stroke:#181818;stroke-width:1.0;"/><polygon fill="#181818" points="71.02,381.8,67.6473,372.5466,67.5474,378.2026,61.8915,378.1027,71.02,381.8" style="stroke:#181818;stroke-width:1.0;"/><text fill="#000000" font-family="sans-serif" font-size="13" lengthAdjust="spacing" textLength="55.0278" x="41.8" y="223.0669">consulta</text></g><!--link Profmed to Paciente--><g id="link_Profmed_Paciente"><path codeLine="20" d="M283.42,55.42 C298.01,77.31 316.3423,104.8073 330.9123,126.6673 " fill="none" id="Profmed-to-Paciente" style="stroke:#181818;stroke-width:1.0;"/><polygon fill="#181818" points="334.24,131.66,332.5769,121.9526,331.4669,127.4995,325.9201,126.3895,334.24,131.66" style="stroke:#181818;stroke-width:1.0;"/><text fill="#000000" font-family="sans-serif" font-size="13" lengthAdjust="spacing" textLength="49.1626" x="313.8" y="98.0669">atiende</text></g><!--link Tratamiento to HistClinico--><g id="link_Tratamiento_HistClinico"><path codeLine="22" d="M94.65,305.46 C93.9,314.66 93.17,325.32 92.8,335 C92.22,350.56 92.5785,362.0728 93.4685,375.6828 " fill="none" id="Tratamiento-to-HistClinico" style="stroke:#181818;stroke-width:1.0;"/><polygon fill="#181818" points="93.86,381.67,97.2642,372.4282,93.5337,376.6807,89.2812,372.9502,93.86,381.67" style="stroke:#181818;stroke-width:1.0;"/><text fill="#000000" font-family="sans-serif" font-size="13" lengthAdjust="spacing" textLength="38.5049" x="93.8" y="348.0669">forma</text></g><!--link HistClinico to paciente--><g id="link_HistClinico_paciente"><path codeLine="24" d="M95.8,430.42 C95.8,452.31 95.8,478.8 95.8,500.66 " fill="none" id="HistClinico-to-paciente" style="stroke:#181818;stroke-width:1.0;"/><polygon fill="#181818" points="95.8,506.66,99.8,497.66,95.8,501.66,91.8,497.66,95.8,506.66" style="stroke:#181818;stroke-width:1.0;"/><text fill="#000000" font-family="sans-serif" font-size="13" lengthAdjust="spacing" textLength="32.9443" x="96.8" y="473.0669">tiene</text></g><!--link Paciente to Tratamiento--><g id="link_Paciente_Tratamiento"><path codeLine="26" d="M303.4,179.56 C258.46,201.41 196.0161,231.7666 150.4561,253.9166 " fill="none" id="Paciente-to-Tratamiento" style="stroke:#181818;stroke-width:1.0;"/><polygon fill="#181818" points="145.06,256.54,154.9031,256.2023,149.5567,254.3538,151.4052,249.0075,145.06,256.54" style="stroke:#181818;stroke-width:1.0;"/><text fill="#000000" font-family="sans-serif" font-size="13" lengthAdjust="spacing" textLength="34.874" x="238.8" y="223.0669">sigue</text></g><!--link Paciente to CentroSalud--><g id="link_Paciente_CentroSalud"><path codeLine="27" d="M331.9,180.42 C315.17,202.31 293.9824,230.0321 277.2824,251.8921 " fill="none" id="Paciente-to-CentroSalud" style="stroke:#181818;stroke-width:1.0;"/><polygon fill="#181818" points="273.64,256.66,282.2822,251.9365,276.6754,252.6868,275.9251,247.0799,273.64,256.66" style="stroke:#181818;stroke-width:1.0;"/><text fill="#000000" font-family="sans-serif" font-size="13" lengthAdjust="spacing" textLength="39.603" x="308.8" y="223.0669">acude</text></g><!--link Paciente to Urgencias--><g id="link_Paciente_Urgencias"><path codeLine="28" d="M354.6,180.33 C364.32,227.6 385.0316,328.3029 394.7716,375.6729 " fill="none" id="Paciente-to-Urgencias" style="stroke:#181818;stroke-width:1.0;"/><polygon fill="#181818" points="395.98,381.55,398.0854,371.9288,394.973,376.6525,390.2493,373.54,395.98,381.55" style="stroke:#181818;stroke-width:1.0;"/><text fill="#000000" font-family="sans-serif" font-size="13" lengthAdjust="spacing" textLength="39.603" x="379.8" y="285.5669">acude</text></g><!--SRC=[TL4v3W8n3Epp2d-03sn1GqE3X0Gym2Hc5IaRenmLukza3uANG9cPyNZ6qGvZX6FWsq3cyLHwVgEsv1DLu1mmuJ1YNB6zZMddhBVwW-sA8l09NHPcWHDhTXmFP8euLkOIUlBQueWeCGgRpROTwq2pJoK3DTfgrC5lmLAmWnk70Gt3dGCqAj58B5FL_L-kQFjChUp7HhN0_vmCNGaYzTc6bLJSlmCi-pok-E_aCRkqLho_j8oFjKpf9KnRaocsKWARDFTginpdxTl6dA-ouiN1ImwTpHSl_d5YNm00]--></g></svg>