<svg xmlns="http://www.w3.org/2000/svg" xmlns:xlink="http://www.w3.org/1999/xlink" contentStyleType="text/css" height="444px" preserveAspectRatio="none" style="width:249px;height:444px;background:#FFFFFF;" version="1.1" viewBox="0 0 249 444" width="249px" zoomAndPan="magnify"><defs/><g><ellipse cx="139.28" cy="16" fill="#222222" rx="10" ry="10" style="stroke:#222222;stroke-width:1.0;"/><g id="Asignado"><rect fill="#F1F1F1" height="50" rx="12.5" ry="12.5" style="stroke:#181818;stroke-width:0.5;" width="84.5518" x="46" y="86"/><line style="stroke:#181818;stroke-width:0.5;" x1="46" x2="130.5518" y1="112.2969" y2="112.2969"/><text fill="#000000" font-family="sans-serif" font-size="14" lengthAdjust="spacing" textLength="64.5518" x="56" y="103.9951">Asignado</text></g><g id="En_proceso"><rect fill="#F1F1F1" height="50" rx="12.5" ry="12.5" style="stroke:#181818;stroke-width:0.5;" width="100.0967" x="34.23" y="196"/><line style="stroke:#181818;stroke-width:0.5;" x1="34.23" x2="134.3267" y1="222.2969" y2="222.2969"/><text fill="#000000" font-family="sans-serif" font-size="14" lengthAdjust="spacing" textLength="80.0967" x="44.23" y="213.9951">En_proceso</text></g><g id="No_asignado"><rect fill="#F1F1F1" height="50" rx="12.5" ry="12.5" style="stroke:#181818;stroke-width:0.5;" width="109.5918" x="132.48" y="306"/><line style="stroke:#181818;stroke-width:0.5;" x1="132.48" x2="242.0718" y1="332.2969" y2="332.2969"/><text fill="#000000" font-family="sans-serif" font-size="14" lengthAdjust="spacing" textLength="89.5918" x="142.48" y="323.9951">No_asignado</text></g><g id="Finalizado"><rect fill="#F1F1F1" height="50" rx="12.5" ry="12.5" style="stroke:#181818;stroke-width:0.5;" width="90.5537" x="7" y="306"/><line style="stroke:#181818;stroke-width:0.5;" x1="7" x2="97.5537" y1="332.2969" y2="332.2969"/><text fill="#000000" font-family="sans-serif" font-size="14" lengthAdjust="spacing" textLength="70.5537" x="17" y="323.9951">Finalizado</text></g><ellipse cx="187.28" cy="427" fill="none" rx="11" ry="11" style="stroke:#222222;stroke-width:1.0;"/><ellipse cx="187.28" cy="427" fill="#222222" rx="6" ry="6" style="stroke:#222222;stroke-width:1.0;"/><!--link *start* to Asignado--><g id="link_*start*_Asignado"><path d="M134.75,25.25 C127.39,38.68 115.4249,60.4891 104.4849,80.4391 " fill="none" id="*start*-to-Asignado" style="stroke:#181818;stroke-width:1.0;"/><polygon fill="#181818" points="101.6,85.7,109.4347,79.7319,104.0041,81.3159,102.4201,75.8853,101.6,85.7" style="stroke:#181818;stroke-width:1.0;"/></g><!--link Asignado to En_proceso--><g id="link_Asignado_En_proceso"><path d="M87.38,136.24 C86.72,154.02 86.0528,172.0841 85.3928,189.8441 " fill="none" id="Asignado-to-En_proceso" style="stroke:#181818;stroke-width:1.0;"/><polygon fill="#181818" points="85.17,195.84,89.5015,186.9948,85.3557,190.8434,81.507,186.6977,85.17,195.84" style="stroke:#181818;stroke-width:1.0;"/></g><!--link En_proceso to No_asignado--><g id="link_En_proceso_No_asignado"><path d="M107.39,246.24 C124.36,264.02 143.1475,283.7395 160.0975,301.4995 " fill="none" id="En_proceso-to-No_asignado" style="stroke:#181818;stroke-width:1.0;"/><polygon fill="#181818" points="164.24,305.84,160.9199,296.5676,160.7879,302.2229,155.1326,302.091,164.24,305.84" style="stroke:#181818;stroke-width:1.0;"/></g><!--link En_proceso to Finalizado--><g id="link_En_proceso_Finalizado"><path d="M77.1,246.24 C71.83,264.02 66.4068,282.3279 61.1368,300.0879 " fill="none" id="En_proceso-to-Finalizado" style="stroke:#181818;stroke-width:1.0;"/><polygon fill="#181818" points="59.43,305.84,65.825,298.3497,60.8524,301.0466,58.1555,296.0739,59.43,305.84" style="stroke:#181818;stroke-width:1.0;"/></g><!--link *start* to No_asignado--><g id="link_*start*_No_asignado"><path d="M140.71,26.37 C147.17,68.48 172.7206,235.0793 182.6106,299.5793 " fill="none" id="*start*-to-No_asignado" style="stroke:#181818;stroke-width:1.0;"/><polygon fill="#181818" points="183.52,305.51,186.1097,296.0077,182.7622,300.5678,178.2022,297.2202,183.52,305.51" style="stroke:#181818;stroke-width:1.0;"/></g><!--link No_asignado to *end*--><g id="link_No_asignado_*end*"><path d="M187.28,356.21 C187.28,375.57 187.28,395.75 187.28,409.9 " fill="none" id="No_asignado-to-*end*" style="stroke:#181818;stroke-width:1.0;"/><polygon fill="#181818" points="187.28,415.9,191.28,406.9,187.28,410.9,183.28,406.9,187.28,415.9" style="stroke:#181818;stroke-width:1.0;"/></g><!--SRC=[YzQALT3LjLDmBCvCpqjCoUU2CS2Yhddn1KNvoQd5-Lm89bZ6Bpy-4QO5JSejCoyn9xCA9CCL3JKUMJaI6om7L0C0]--></g></svg>